<svg xmlns="http://www.w3.org/2000/svg" viewBox="0 0 252.02 51.54"><defs><style>.cls-1{fill:#1c2431;}.cls-2{fill:#ee2140;}</style></defs><g id="Layer_2" data-name="Layer 2"><g id="Layer_1-2" data-name="Layer 1"><g id="GROUP_WAY" data-name="GROUP WAY"><path class="cls-1" d="M84.75,25.49a45.27,45.27,0,0,1-1.16,7.28c-.12.51-.21.93-.28,1.23L79.44,51.54H63.31L44.84.07h22l4,22.68c.36,2,.62,3.81.81,5.47s.31,3.2.35,4.65h.43a47.16,47.16,0,0,1,1.09-8,5.61,5.61,0,0,1,.14-.73l4.88-24h13l4.88,24.05c0,.14.07.38.14.7a47.8,47.8,0,0,1,1.09,8h.43c0-1.45.16-3,.35-4.65s.45-3.48.81-5.47l4-22.68,22,0L106.86,51.54H90.73L86.86,34c-.07-.3-.16-.73-.28-1.27a44.6,44.6,0,0,1-1.16-7.24Z"/><path class="cls-1" d="M108,51.54,126.36.07H147l18,51.47h-19.9l-1.65-6.47h-14l-1.58,6.47Zm24.54-18.7h7.7c-.65-5.58-2.22-17.55-4.06-17.53S133.07,27.23,132.54,32.84Z"/><path class="cls-2" d="M188.93,0h18.13L184.9,51.54H166.12Q177.53,25.77,188.93,0Z"/></g><g id="L_-_MENUS" data-name="L - MENUS"><path class="cls-1" d="M43.63,12.22,6,32s-1.12-2.17-1.13-2.2c-1.32-2.56-1.58-3.64-2.64-5.1A12.73,12.73,0,0,0,.65,22.87c3.9-2.07,7.07-3.82,9.3-5.07L20.06,12,30.49,6.1c2.56-1.44,6.24-3.52,10.74-6Z"/><path class="cls-1" d="M41.23,51.54,0,33.89c.22-3.67.43-7.34.65-11l43,16.05Z"/></g><g id="R_-_MAIS" data-name="R - MAIS"><path class="cls-1" d="M208.33,39.07l37.76-20s1.14,2.15,1.15,2.19c1.34,2.55,1.61,3.63,2.68,5.08a12.92,12.92,0,0,0,1.55,1.76c-3.89,2.11-7.05,3.89-9.27,5.16l-10.06,5.83-9.43,5.48-1,.55c-1.42.82-4.41,2.59-10.71,6.4Z"/><path class="cls-1" d="M210.6.07,252,17.1c-.18,3.67-.37,7.35-.55,11L208.33,12.43Z"/></g><path class="cls-1" d="M166.43,33.06,150.7,0H170c1,2.41,2.05,4.88,3.2,7.4s2.27,4.86,3.41,7.15Z"/></g></g></svg>