<svg xmlns="http://www.w3.org/2000/svg" xmlns:xlink="http://www.w3.org/1999/xlink" viewBox="0 0 2129.65 1470.19"><defs><style>.cls-1{fill:url(#linear-gradient);}.cls-2{fill:#bdd0fb;}.cls-14,.cls-16,.cls-3{fill:#fff;}.cls-4{fill:url(#linear-gradient-2);}.cls-5{fill:#91b3fa;}.cls-6{fill:#7d97f4;}.cls-7{fill:url(#linear-gradient-3);}.cls-8{fill:url(#linear-gradient-4);}.cls-9{fill:url(#linear-gradient-5);}.cls-10{opacity:0.42;}.cls-11{fill:url(#linear-gradient-6);}.cls-12{fill:url(#linear-gradient-7);}.cls-13{fill:url(#linear-gradient-8);}.cls-14{opacity:0.65;}.cls-15{opacity:0.71;}.cls-16{opacity:0.47;}.cls-17{fill:url(#linear-gradient-9);}.cls-18{fill:url(#linear-gradient-10);}.cls-19{opacity:0.36;}.cls-20{fill:url(#linear-gradient-11);}.cls-21{fill:url(#linear-gradient-12);}.cls-22{fill:url(#linear-gradient-13);}.cls-23{fill:url(#linear-gradient-14);}.cls-24{fill:url(#linear-gradient-15);}.cls-25{fill:url(#linear-gradient-16);}.cls-26{fill:url(#linear-gradient-17);}.cls-27{fill:url(#linear-gradient-18);}.cls-28{fill:url(#linear-gradient-19);}.cls-29{fill:url(#linear-gradient-20);}.cls-30{fill:url(#linear-gradient-21);}.cls-31{fill:url(#linear-gradient-22);}.cls-32{fill:url(#linear-gradient-23);}.cls-33{fill:url(#linear-gradient-24);}.cls-34{fill:url(#linear-gradient-25);}.cls-35{fill:url(#linear-gradient-26);}.cls-36{fill:url(#linear-gradient-27);}.cls-37{fill:url(#linear-gradient-28);}.cls-38{fill:url(#linear-gradient-29);}.cls-39{fill:url(#linear-gradient-30);}.cls-40{fill:url(#linear-gradient-31);}.cls-41{fill:url(#linear-gradient-32);}.cls-42{fill:url(#linear-gradient-33);}.cls-43{fill:url(#linear-gradient-34);}.cls-44{fill:url(#linear-gradient-35);}.cls-45{fill:url(#linear-gradient-36);}.cls-46{fill:url(#linear-gradient-37);}.cls-47{fill:url(#linear-gradient-38);}.cls-48{fill:url(#linear-gradient-39);}.cls-49{fill:url(#linear-gradient-40);}.cls-50{fill:url(#linear-gradient-41);}.cls-51{fill:url(#linear-gradient-42);}.cls-52{fill:url(#linear-gradient-43);}.cls-53{fill:url(#linear-gradient-44);}.cls-54{fill:url(#linear-gradient-45);}.cls-55{fill:url(#linear-gradient-46);}.cls-56{fill:url(#linear-gradient-47);}.cls-57{fill:url(#linear-gradient-48);}.cls-58{fill:url(#linear-gradient-49);}.cls-59{fill:url(#linear-gradient-50);}.cls-60{fill:url(#linear-gradient-51);}.cls-61{fill:url(#linear-gradient-52);}.cls-62{fill:url(#linear-gradient-53);}.cls-63{fill:url(#linear-gradient-54);}.cls-64{fill:url(#linear-gradient-55);}.cls-65{fill:url(#linear-gradient-56);}.cls-66{fill:url(#linear-gradient-57);}.cls-67{fill:url(#linear-gradient-58);}.cls-68{fill:url(#linear-gradient-59);}.cls-69{fill:url(#linear-gradient-60);}.cls-70{fill:url(#linear-gradient-61);}.cls-71{fill:url(#linear-gradient-62);}.cls-72{fill:url(#linear-gradient-63);}.cls-73{fill:url(#linear-gradient-64);}.cls-74{fill:url(#linear-gradient-65);}.cls-75{fill:url(#linear-gradient-66);}.cls-76{fill:url(#linear-gradient-67);}.cls-77{fill:url(#linear-gradient-68);}.cls-78{fill:url(#linear-gradient-69);}.cls-79{fill:url(#linear-gradient-70);}.cls-80{fill:url(#linear-gradient-71);}.cls-81{fill:url(#linear-gradient-72);}.cls-82{fill:url(#linear-gradient-73);}.cls-83{fill:url(#linear-gradient-74);}.cls-84{fill:url(#linear-gradient-75);}.cls-85{fill:url(#linear-gradient-76);}.cls-86{fill:url(#linear-gradient-77);}.cls-87{fill:url(#linear-gradient-78);}.cls-88{fill:url(#linear-gradient-79);}.cls-89{fill:url(#linear-gradient-80);}.cls-90{fill:url(#linear-gradient-81);}.cls-91{fill:url(#linear-gradient-82);}.cls-92{fill:url(#linear-gradient-83);}.cls-93{fill:url(#linear-gradient-84);}.cls-94{fill:url(#linear-gradient-85);}.cls-95{fill:url(#linear-gradient-86);}.cls-96{fill:url(#linear-gradient-87);}.cls-97{fill:url(#linear-gradient-88);}.cls-98{fill:url(#linear-gradient-89);}.cls-99{fill:url(#linear-gradient-90);}.cls-100{fill:url(#linear-gradient-91);}.cls-101{fill:url(#linear-gradient-92);}.cls-102{fill:url(#linear-gradient-93);}.cls-103{fill:url(#linear-gradient-94);}.cls-104{fill:url(#linear-gradient-95);}.cls-105{fill:url(#linear-gradient-96);}.cls-106{fill:url(#linear-gradient-97);}.cls-107{fill:url(#linear-gradient-98);}.cls-108{fill:url(#linear-gradient-99);}.cls-109{fill:url(#linear-gradient-100);}.cls-110{fill:url(#linear-gradient-101);}.cls-111{fill:url(#linear-gradient-102);}.cls-112{fill:url(#linear-gradient-103);}.cls-113{fill:url(#linear-gradient-104);}.cls-114{fill:url(#linear-gradient-105);}.cls-115{fill:url(#linear-gradient-106);}.cls-116{fill:url(#linear-gradient-107);}.cls-117{fill:url(#linear-gradient-108);}.cls-118{fill:url(#linear-gradient-109);}.cls-119{fill:url(#linear-gradient-110);}.cls-120{fill:url(#linear-gradient-111);}.cls-121{fill:url(#linear-gradient-112);}.cls-122{fill:url(#linear-gradient-113);}.cls-123{opacity:0.69;}.cls-124{fill:url(#linear-gradient-114);}.cls-125{fill:url(#linear-gradient-115);}.cls-126{fill:url(#linear-gradient-116);}.cls-127{fill:url(#linear-gradient-117);}.cls-128{fill:url(#linear-gradient-118);}.cls-129{fill:url(#linear-gradient-119);}.cls-130{fill:url(#linear-gradient-120);}.cls-131{fill:url(#linear-gradient-121);}.cls-132{fill:url(#linear-gradient-122);}.cls-133{fill:url(#linear-gradient-123);}.cls-134{fill:url(#linear-gradient-124);}.cls-135{fill:url(#linear-gradient-125);}.cls-136{fill:url(#linear-gradient-126);}.cls-137{fill:url(#linear-gradient-127);}.cls-138{fill:url(#linear-gradient-128);}.cls-139{fill:url(#linear-gradient-129);}.cls-140{fill:url(#linear-gradient-130);}.cls-141{fill:url(#linear-gradient-131);}.cls-142{fill:url(#linear-gradient-132);}.cls-143{fill:url(#linear-gradient-133);}.cls-144{fill:url(#linear-gradient-134);}.cls-145{fill:url(#linear-gradient-135);}.cls-146{fill:url(#linear-gradient-136);}.cls-147{fill:url(#linear-gradient-137);}.cls-148{fill:url(#linear-gradient-138);}.cls-149{fill:url(#linear-gradient-139);}.cls-150{fill:url(#linear-gradient-140);}.cls-151{fill:url(#linear-gradient-141);}.cls-152{fill:url(#linear-gradient-142);}.cls-153{fill:url(#linear-gradient-143);}.cls-154{fill:url(#linear-gradient-144);}.cls-155{fill:url(#linear-gradient-145);}.cls-156{fill:url(#linear-gradient-146);}.cls-157{fill:url(#linear-gradient-147);}.cls-158{fill:url(#linear-gradient-148);}.cls-159{fill:url(#linear-gradient-149);}.cls-160{fill:url(#linear-gradient-150);}.cls-161{fill:url(#_16);}.cls-162{fill:url(#linear-gradient-151);}</style><linearGradient id="linear-gradient" y1="677.3" x2="2045.24" y2="677.3" gradientUnits="userSpaceOnUse"><stop offset="0" stop-color="#dae3fe"/><stop offset="1" stop-color="#e9effd"/></linearGradient><linearGradient id="linear-gradient-2" x1="94.92" y1="973.87" x2="387.13" y2="973.87" xlink:href="#linear-gradient"/><linearGradient id="linear-gradient-3" x1="2183.04" y1="266.85" x2="2079.04" y2="460.85" gradientUnits="userSpaceOnUse"><stop offset="0" stop-color="#09005d"/><stop offset="1" stop-color="#1a0f91"/></linearGradient><linearGradient id="linear-gradient-4" x1="1970" y1="710.89" x2="848.31" y2="2145.81" gradientUnits="userSpaceOnUse"><stop offset="0" stop-color="#fe7062"/><stop offset="1" stop-color="#ff928e"/></linearGradient><linearGradient id="linear-gradient-5" x1="1838.42" y1="297.75" x2="1818.92" y2="417.74" xlink:href="#linear-gradient-3"/><linearGradient id="linear-gradient-6" x1="1086.48" y1="940.77" x2="1095.48" y2="1570.84" xlink:href="#linear-gradient-3"/><linearGradient id="linear-gradient-7" x1="1080.73" y1="421.13" x2="1017.73" y2="1147.2" xlink:href="#linear-gradient-3"/><linearGradient id="linear-gradient-8" x1="536.68" y1="207.51" x2="1942.59" y2="1473.35" xlink:href="#linear-gradient-4"/><linearGradient id="linear-gradient-9" x1="1085.8" y1="1069.55" x2="1085.8" y2="1255.57" xlink:href="#linear-gradient-3"/><linearGradient id="linear-gradient-10" x1="653.3" y1="1231.38" x2="827.74" y2="1231.38" xlink:href="#linear-gradient"/><linearGradient id="linear-gradient-11" x1="2160.81" y1="-932.97" x2="2467.97" y2="-932.97" gradientTransform="matrix(0.66, 0.75, -0.75, 0.66, -310.24, -168.39)" xlink:href="#linear-gradient-3"/><linearGradient id="linear-gradient-12" x1="1947.74" y1="1001.4" x2="1917.74" y2="1413.4" xlink:href="#linear-gradient-3"/><linearGradient id="linear-gradient-13" x1="1005.65" y1="1456.51" x2="1003.02" y2="1240.66" xlink:href="#linear-gradient-3"/><linearGradient id="linear-gradient-14" x1="1006.42" y1="1551.29" x2="1005.11" y2="1397.3" xlink:href="#linear-gradient-3"/><linearGradient id="linear-gradient-15" x1="377.39" y1="1392" x2="1638.56" y2="1392" xlink:href="#linear-gradient-3"/><linearGradient id="linear-gradient-16" x1="1554.28" y1="1439.99" x2="1682.28" y2="547.99" gradientUnits="userSpaceOnUse"><stop offset="0" stop-color="#4042e2"/><stop offset="1" stop-color="#4f52ff"/></linearGradient><linearGradient id="linear-gradient-17" x1="1488.46" y1="1430.55" x2="1616.46" y2="538.55" xlink:href="#linear-gradient-16"/><linearGradient id="linear-gradient-18" x1="1468.03" y1="1427.62" x2="1596.03" y2="535.61" xlink:href="#linear-gradient-16"/><linearGradient id="linear-gradient-19" x1="1312.2" y1="1405.26" x2="1440.21" y2="513.25" xlink:href="#linear-gradient-16"/><linearGradient id="linear-gradient-20" x1="1397" y1="1417.42" x2="1525" y2="525.42" xlink:href="#linear-gradient-16"/><linearGradient id="linear-gradient-21" x1="1135.02" y1="1379.83" x2="1263.02" y2="487.83" xlink:href="#linear-gradient-16"/><linearGradient id="linear-gradient-22" x1="1217.67" y1="1391.69" x2="1345.67" y2="499.69" xlink:href="#linear-gradient-16"/><linearGradient id="linear-gradient-23" x1="1298.46" y1="1403.28" x2="1426.46" y2="511.28" xlink:href="#linear-gradient-16"/><linearGradient id="linear-gradient-24" x1="1379.95" y1="1414.98" x2="1507.96" y2="522.98" xlink:href="#linear-gradient-16"/><linearGradient id="linear-gradient-25" x1="1141.66" y1="1380.78" x2="1269.66" y2="488.78" xlink:href="#linear-gradient-16"/><linearGradient id="linear-gradient-26" x1="470.18" y1="1284.43" x2="598.18" y2="392.43" xlink:href="#linear-gradient-16"/><linearGradient id="linear-gradient-27" x1="573.55" y1="1299.26" x2="701.55" y2="407.26" xlink:href="#linear-gradient-16"/><linearGradient id="linear-gradient-28" x1="1052.3" y1="1367.96" x2="1180.3" y2="475.96" xlink:href="#linear-gradient-16"/><linearGradient id="linear-gradient-29" x1="1578.88" y1="1443.52" x2="1706.88" y2="551.52" xlink:href="#linear-gradient-16"/><linearGradient id="linear-gradient-30" x1="858.11" y1="1340.09" x2="986.11" y2="448.09" xlink:href="#linear-gradient-16"/><linearGradient id="linear-gradient-31" x1="960.28" y1="1354.75" x2="1088.28" y2="462.75" xlink:href="#linear-gradient-16"/><linearGradient id="linear-gradient-32" x1="1055.06" y1="1368.36" x2="1183.06" y2="476.36" xlink:href="#linear-gradient-16"/><linearGradient id="linear-gradient-33" x1="763.86" y1="1326.57" x2="891.86" y2="434.57" xlink:href="#linear-gradient-16"/><linearGradient id="linear-gradient-34" x1="1228.01" y1="1393.17" x2="1356.01" y2="501.18" xlink:href="#linear-gradient-16"/><linearGradient id="linear-gradient-35" x1="669.42" y1="1313.02" x2="797.42" y2="421.02" xlink:href="#linear-gradient-16"/><linearGradient id="linear-gradient-36" x1="1148.64" y1="1381.78" x2="1276.64" y2="489.79" xlink:href="#linear-gradient-16"/><linearGradient id="linear-gradient-37" x1="1058.12" y1="1368.79" x2="1186.12" y2="476.8" xlink:href="#linear-gradient-16"/><linearGradient id="linear-gradient-38" x1="1238.75" y1="1394.72" x2="1366.76" y2="502.72" xlink:href="#linear-gradient-16"/><linearGradient id="linear-gradient-39" x1="961.21" y1="1354.89" x2="1089.21" y2="462.89" xlink:href="#linear-gradient-16"/><linearGradient id="linear-gradient-40" x1="1414.85" y1="1419.98" x2="1542.85" y2="527.98" xlink:href="#linear-gradient-16"/><linearGradient id="linear-gradient-41" x1="1509.73" y1="1433.6" x2="1637.73" y2="541.6" xlink:href="#linear-gradient-16"/><linearGradient id="linear-gradient-42" x1="1598.49" y1="1446.34" x2="1726.49" y2="554.34" xlink:href="#linear-gradient-16"/><linearGradient id="linear-gradient-43" x1="1326.51" y1="1407.31" x2="1454.51" y2="515.31" xlink:href="#linear-gradient-16"/><linearGradient id="linear-gradient-44" x1="773.27" y1="1327.92" x2="901.27" y2="435.92" xlink:href="#linear-gradient-16"/><linearGradient id="linear-gradient-45" x1="683.2" y1="1314.99" x2="811.2" y2="422.99" xlink:href="#linear-gradient-16"/><linearGradient id="linear-gradient-46" x1="592.03" y1="1301.91" x2="720.03" y2="409.91" xlink:href="#linear-gradient-16"/><linearGradient id="linear-gradient-47" x1="882.09" y1="1343.53" x2="1010.09" y2="451.53" xlink:href="#linear-gradient-16"/><linearGradient id="linear-gradient-48" x1="863.34" y1="1340.84" x2="991.34" y2="448.84" xlink:href="#linear-gradient-16"/><linearGradient id="linear-gradient-49" x1="496.61" y1="1288.22" x2="624.62" y2="396.22" xlink:href="#linear-gradient-16"/><linearGradient id="linear-gradient-50" x1="655.11" y1="1310.96" x2="783.11" y2="418.96" xlink:href="#linear-gradient-16"/><linearGradient id="linear-gradient-51" x1="554.54" y1="1296.53" x2="682.54" y2="404.53" xlink:href="#linear-gradient-16"/><linearGradient id="linear-gradient-52" x1="450.3" y1="1281.57" x2="578.3" y2="389.57" xlink:href="#linear-gradient-16"/><linearGradient id="linear-gradient-53" x1="1553.85" y1="1439.93" x2="1681.85" y2="547.93" xlink:href="#linear-gradient-16"/><linearGradient id="linear-gradient-54" x1="1488.4" y1="1430.54" x2="1616.4" y2="538.54" xlink:href="#linear-gradient-16"/><linearGradient id="linear-gradient-55" x1="1467.92" y1="1427.6" x2="1595.92" y2="535.6" xlink:href="#linear-gradient-16"/><linearGradient id="linear-gradient-56" x1="1312.1" y1="1405.24" x2="1440.1" y2="513.24" xlink:href="#linear-gradient-16"/><linearGradient id="linear-gradient-57" x1="1397.03" y1="1417.43" x2="1525.03" y2="525.42" xlink:href="#linear-gradient-16"/><linearGradient id="linear-gradient-58" x1="1134.77" y1="1379.79" x2="1262.77" y2="487.79" xlink:href="#linear-gradient-16"/><linearGradient id="linear-gradient-59" x1="1217.54" y1="1391.67" x2="1345.54" y2="499.67" xlink:href="#linear-gradient-16"/><linearGradient id="linear-gradient-60" x1="1298.35" y1="1403.27" x2="1426.35" y2="511.27" xlink:href="#linear-gradient-16"/><linearGradient id="linear-gradient-61" x1="1379.94" y1="1414.98" x2="1507.94" y2="522.97" xlink:href="#linear-gradient-16"/><linearGradient id="linear-gradient-62" x1="1141.4" y1="1380.74" x2="1269.4" y2="488.74" xlink:href="#linear-gradient-16"/><linearGradient id="linear-gradient-63" x1="469.98" y1="1284.4" x2="597.98" y2="392.4" xlink:href="#linear-gradient-16"/><linearGradient id="linear-gradient-64" x1="573.36" y1="1299.23" x2="701.36" y2="407.23" xlink:href="#linear-gradient-16"/><linearGradient id="linear-gradient-65" x1="1052" y1="1367.92" x2="1180" y2="475.92" xlink:href="#linear-gradient-16"/><linearGradient id="linear-gradient-66" x1="1578.7" y1="1443.5" x2="1706.7" y2="551.49" xlink:href="#linear-gradient-16"/><linearGradient id="linear-gradient-67" x1="858" y1="1340.08" x2="986" y2="448.08" xlink:href="#linear-gradient-16"/><linearGradient id="linear-gradient-68" x1="960.11" y1="1354.73" x2="1088.11" y2="462.73" xlink:href="#linear-gradient-16"/><linearGradient id="linear-gradient-69" x1="1054.77" y1="1368.31" x2="1182.77" y2="476.31" xlink:href="#linear-gradient-16"/><linearGradient id="linear-gradient-70" x1="763.68" y1="1326.54" x2="891.68" y2="434.54" xlink:href="#linear-gradient-16"/><linearGradient id="linear-gradient-71" x1="1227.88" y1="1393.15" x2="1355.88" y2="501.16" xlink:href="#linear-gradient-16"/><linearGradient id="linear-gradient-72" x1="669.23" y1="1312.99" x2="797.23" y2="420.99" xlink:href="#linear-gradient-16"/><linearGradient id="linear-gradient-73" x1="1148.38" y1="1381.75" x2="1276.38" y2="489.75" xlink:href="#linear-gradient-16"/><linearGradient id="linear-gradient-74" x1="1238.61" y1="1394.69" x2="1366.61" y2="502.69" xlink:href="#linear-gradient-16"/><linearGradient id="linear-gradient-75" x1="961.06" y1="1354.87" x2="1089.06" y2="462.87" xlink:href="#linear-gradient-16"/><linearGradient id="linear-gradient-76" x1="1414.74" y1="1419.97" x2="1542.74" y2="527.97" xlink:href="#linear-gradient-16"/><linearGradient id="linear-gradient-77" x1="1509.65" y1="1433.59" x2="1637.65" y2="541.59" xlink:href="#linear-gradient-16"/><linearGradient id="linear-gradient-78" x1="1598.39" y1="1446.32" x2="1726.39" y2="554.32" xlink:href="#linear-gradient-16"/><linearGradient id="linear-gradient-79" x1="852.28" y1="1339.26" x2="980.28" y2="447.25" xlink:href="#linear-gradient-16"/><linearGradient id="linear-gradient-80" x1="1326.36" y1="1407.29" x2="1454.36" y2="515.28" xlink:href="#linear-gradient-16"/><linearGradient id="linear-gradient-81" x1="773.19" y1="1327.91" x2="901.19" y2="435.91" xlink:href="#linear-gradient-16"/><linearGradient id="linear-gradient-82" x1="683.06" y1="1314.98" x2="811.07" y2="422.97" xlink:href="#linear-gradient-16"/><linearGradient id="linear-gradient-83" x1="591.9" y1="1301.89" x2="719.9" y2="409.89" xlink:href="#linear-gradient-16"/><linearGradient id="linear-gradient-84" x1="904.01" y1="1346.68" x2="1032.01" y2="454.68" xlink:href="#linear-gradient-16"/><linearGradient id="linear-gradient-85" x1="863.24" y1="1340.83" x2="991.24" y2="448.85" xlink:href="#linear-gradient-16"/><linearGradient id="linear-gradient-86" x1="496.55" y1="1288.21" x2="624.55" y2="396.21" xlink:href="#linear-gradient-16"/><linearGradient id="linear-gradient-87" x1="654.77" y1="1310.91" x2="782.77" y2="418.91" xlink:href="#linear-gradient-16"/><linearGradient id="linear-gradient-88" x1="554.25" y1="1296.49" x2="682.25" y2="404.49" xlink:href="#linear-gradient-16"/><linearGradient id="linear-gradient-89" x1="450.15" y1="1281.55" x2="578.15" y2="389.55" xlink:href="#linear-gradient-16"/><linearGradient id="linear-gradient-90" x1="-2784.38" y1="2105.09" x2="-2765.38" y2="2218.09" gradientTransform="matrix(-1, 0, 0, 1, -1473.76, 0)" xlink:href="#linear-gradient-16"/><linearGradient id="linear-gradient-91" x1="-2996.4" y1="992.9" x2="-2944.47" y2="992.9" gradientTransform="matrix(-1, 0, 0, 1, -1473.76, 0)" xlink:href="#linear-gradient-3"/><linearGradient id="linear-gradient-92" x1="-2991.46" y1="978.28" x2="-2976.41" y2="978.28" gradientTransform="matrix(-1, 0, 0, 1, -1473.76, 0)" gradientUnits="userSpaceOnUse"><stop offset="0" stop-color="#a22b25"/><stop offset="1" stop-color="#c0423c"/></linearGradient><linearGradient id="linear-gradient-93" x1="-2903.71" y1="2125.16" x2="-2884.71" y2="2238.16" gradientTransform="matrix(-1, 0, 0, 1, -1473.76, 0)" xlink:href="#linear-gradient-16"/><linearGradient id="linear-gradient-94" x1="-3102.76" y1="986.45" x2="-3072.71" y2="986.45" gradientTransform="matrix(-1, 0, 0, 1, -1473.76, 0)" xlink:href="#linear-gradient-3"/><linearGradient id="linear-gradient-95" x1="-3087.14" y1="965.73" x2="-3069.16" y2="965.73" xlink:href="#linear-gradient-92"/><linearGradient id="linear-gradient-96" x1="1591.73" y1="781.4" x2="1723.07" y2="558.74" xlink:href="#linear-gradient-16"/><linearGradient id="linear-gradient-97" x1="-2860.94" y1="590.25" x2="-3273.29" y2="948.89" gradientTransform="matrix(-1, 0, 0, 1, -1473.76, 0)" xlink:href="#linear-gradient-16"/><linearGradient id="linear-gradient-98" x1="-3026.53" y1="899.12" x2="-3017.91" y2="881.88" gradientTransform="matrix(-1, 0, 0, 1, -1473.76, 0)" gradientUnits="userSpaceOnUse"><stop offset="0" stop-color="#53d8ff"/><stop offset="1" stop-color="#3840f7"/></linearGradient><linearGradient id="linear-gradient-99" x1="-3004.74" y1="703.55" x2="-3068.77" y2="760.25" xlink:href="#linear-gradient-92"/><linearGradient id="linear-gradient-100" x1="-2895.32" y1="552.25" x2="-3305.8" y2="909.27" gradientTransform="matrix(-1, 0, 0, 1, -1473.76, 0)" xlink:href="#linear-gradient-16"/><linearGradient id="linear-gradient-101" x1="-2830.79" y1="626.44" x2="-3241.28" y2="983.46" gradientTransform="matrix(-1, 0, 0, 1, -1473.76, 0)" xlink:href="#linear-gradient-16"/><linearGradient id="linear-gradient-102" x1="-2884.7" y1="708.91" x2="-2834.28" y2="708.91" xlink:href="#linear-gradient-92"/><linearGradient id="linear-gradient-103" x1="-2933.72" y1="574.15" x2="-2934.27" y2="668.32" xlink:href="#linear-gradient-92"/><linearGradient id="linear-gradient-104" x1="-3190.52" y1="1724.12" x2="-3236.88" y2="1785.44" gradientTransform="matrix(-0.99, -0.14, -0.14, 0.99, -1482.06, -1603.3)" xlink:href="#linear-gradient-92"/><linearGradient id="linear-gradient-105" x1="-3225.93" y1="1738.91" x2="-3170.56" y2="1738.91" gradientTransform="matrix(-0.99, -0.14, -0.14, 0.99, -1482.06, -1603.3)" xlink:href="#linear-gradient-3"/><linearGradient id="linear-gradient-106" x1="-3258.41" y1="1772.68" x2="-3221.24" y2="1734.54" gradientTransform="matrix(-0.99, -0.14, -0.14, 0.99, -1482.06, -1603.3)" xlink:href="#linear-gradient-92"/><linearGradient id="linear-gradient-107" x1="-2839.63" y1="702.99" x2="-2821.58" y2="702.99" gradientTransform="matrix(-1, 0, 0, 1, -1473.76, 0)" gradientUnits="userSpaceOnUse"><stop offset="0" stop-color="#ff928e"/><stop offset="1" stop-color="#feb3b1"/></linearGradient><linearGradient id="linear-gradient-108" x1="1135.4" y1="688.71" x2="1636.45" y2="805.72" xlink:href="#linear-gradient-3"/><linearGradient id="linear-gradient-109" x1="-2611.69" y1="686.49" x2="-2511.37" y2="599.29" gradientTransform="matrix(-1, 0, 0, 1, -1473.76, 0)" xlink:href="#linear-gradient-3"/><linearGradient id="linear-gradient-110" x1="1136.86" y1="456.59" x2="1131.53" y2="538.59" gradientTransform="matrix(1, 0, 0, 1, 0, 0)" xlink:href="#linear-gradient-107"/><linearGradient id="linear-gradient-111" x1="-2979.45" y1="732.1" x2="-3043.48" y2="788.8" xlink:href="#linear-gradient-92"/><linearGradient id="linear-gradient-112" x1="511.28" y1="133.97" x2="528.04" y2="580.44" xlink:href="#linear-gradient"/><linearGradient id="linear-gradient-113" x1="474.25" y1="455.31" x2="567.97" y2="455.31" xlink:href="#linear-gradient"/><linearGradient id="linear-gradient-114" x1="344.6" y1="129.29" x2="496.6" y2="479.29" xlink:href="#linear-gradient-16"/><linearGradient id="linear-gradient-115" x1="342.98" y1="129.99" x2="494.98" y2="479.99" xlink:href="#linear-gradient-16"/><linearGradient id="linear-gradient-116" x1="347.57" y1="128" x2="499.57" y2="478" xlink:href="#linear-gradient-16"/><linearGradient id="linear-gradient-117" x1="346.22" y1="128.58" x2="498.22" y2="478.58" xlink:href="#linear-gradient-16"/><linearGradient id="linear-gradient-118" x1="341.36" y1="130.69" x2="493.36" y2="480.69" xlink:href="#linear-gradient-16"/><linearGradient id="linear-gradient-119" x1="186.26" y1="279.88" x2="456.26" y2="530.55" xlink:href="#linear-gradient-4"/><linearGradient id="linear-gradient-120" x1="190.78" y1="275.01" x2="460.77" y2="525.68" xlink:href="#linear-gradient-4"/><linearGradient id="linear-gradient-121" x1="177.36" y1="289.46" x2="447.36" y2="540.13" xlink:href="#linear-gradient-4"/><linearGradient id="linear-gradient-122" x1="181.74" y1="284.75" x2="451.74" y2="535.41" xlink:href="#linear-gradient-4"/><linearGradient id="linear-gradient-123" x1="194.98" y1="270.49" x2="464.98" y2="521.15" xlink:href="#linear-gradient-4"/><linearGradient id="linear-gradient-124" x1="310.52" y1="708.55" x2="593.72" y2="708.55" xlink:href="#linear-gradient"/><linearGradient id="linear-gradient-125" x1="263.8" y1="1329.77" x2="325.67" y2="1329.77" xlink:href="#linear-gradient-3"/><linearGradient id="linear-gradient-126" x1="263.8" y1="1340.89" x2="325.67" y2="1340.89" xlink:href="#linear-gradient-16"/><linearGradient id="linear-gradient-127" x1="155.11" y1="1329.92" x2="184.08" y2="1329.92" xlink:href="#linear-gradient-3"/><linearGradient id="linear-gradient-128" x1="155.11" y1="1343.09" x2="183.22" y2="1343.09" xlink:href="#linear-gradient-16"/><linearGradient id="linear-gradient-129" x1="167.36" y1="1309.95" x2="186.16" y2="1309.95" gradientTransform="matrix(1, 0, 0, 1, 0, 0)" xlink:href="#linear-gradient-107"/><linearGradient id="linear-gradient-130" x1="266.94" y1="1308.72" x2="282.61" y2="1308.72" gradientTransform="matrix(1, 0, 0, 1, 0, 0)" xlink:href="#linear-gradient-107"/><linearGradient id="linear-gradient-131" x1="348.7" y1="1100.06" x2="250.7" y2="1201.06" xlink:href="#linear-gradient-3"/><linearGradient id="linear-gradient-132" x1="305.9" y1="1067.86" x2="241.78" y2="1150.76" gradientUnits="userSpaceOnUse"><stop offset="0" stop-color="#020039"/><stop offset="1" stop-color="#090056"/></linearGradient><linearGradient id="linear-gradient-133" x1="353.99" y1="900.6" x2="29.81" y2="1395.49" xlink:href="#linear-gradient-16"/><linearGradient id="linear-gradient-134" x1="510.34" y1="699.9" x2="494.34" y2="743.23" gradientTransform="matrix(1, 0, 0, 1, 0, 0)" xlink:href="#linear-gradient-107"/><linearGradient id="linear-gradient-135" x1="327.58" y1="852.59" x2="306.25" y2="929.92" gradientTransform="matrix(1, 0, 0, 1, 0, 0)" xlink:href="#linear-gradient-107"/><linearGradient id="linear-gradient-136" x1="169.29" y1="1023.44" x2="361.89" y2="1023.44" xlink:href="#linear-gradient"/><linearGradient id="linear-gradient-137" x1="243.12" y1="1024.34" x2="348.18" y2="1024.34" xlink:href="#linear-gradient"/><linearGradient id="linear-gradient-138" x1="283.17" y1="1024.33" x2="308.14" y2="1024.33" xlink:href="#linear-gradient"/><linearGradient id="linear-gradient-139" x1="182.05" y1="997.09" x2="235.22" y2="997.09" xlink:href="#linear-gradient"/><linearGradient id="linear-gradient-140" x1="300.76" y1="865.73" x2="-23.42" y2="1360.62" xlink:href="#linear-gradient-16"/><linearGradient id="linear-gradient-141" x1="289.45" y1="981.07" x2="249.45" y2="1017.07" gradientTransform="matrix(1, 0, 0, 1, 0, 0)" xlink:href="#linear-gradient-107"/><linearGradient id="linear-gradient-142" x1="297.22" y1="790.52" x2="334.55" y2="865.85" gradientTransform="matrix(1, 0, 0, 1, 0, 0)" xlink:href="#linear-gradient-107"/><linearGradient id="linear-gradient-143" x1="303.57" y1="811.84" x2="348.78" y2="870.04" xlink:href="#linear-gradient-3"/><linearGradient id="linear-gradient-144" x1="281.43" y1="798.34" x2="318.76" y2="873.68" gradientTransform="matrix(1, 0, 0, 1, 0, 0)" xlink:href="#linear-gradient-107"/><linearGradient id="linear-gradient-145" x1="495.8" y1="694.53" x2="479.8" y2="737.86" gradientTransform="matrix(1, 0, 0, 1, 0, 0)" xlink:href="#linear-gradient-107"/><linearGradient id="linear-gradient-146" x1="340.92" y1="720.81" x2="537.3" y2="720.81" xlink:href="#linear-gradient"/><linearGradient id="linear-gradient-147" x1="501.38" y1="652.26" x2="553.62" y2="652.26" gradientTransform="translate(1174.33 118.11) rotate(89.41)" xlink:href="#linear-gradient"/><linearGradient id="linear-gradient-148" x1="1414.95" y1="225.44" x2="1387.31" y2="316.91" gradientUnits="userSpaceOnUse"><stop offset="0" stop-color="#e1473d"/><stop offset="1" stop-color="#e9605a"/></linearGradient><linearGradient id="linear-gradient-149" x1="1413.04" y1="279.64" x2="1209.69" y2="579.72" gradientTransform="matrix(1, 0, 0, 1, 0, 0)" xlink:href="#linear-gradient-107"/><linearGradient id="linear-gradient-150" x1="1445.9" y1="335.56" x2="1247.9" y2="431.56" xlink:href="#linear-gradient-4"/><linearGradient id="_16" x1="2043.39" y1="-21.16" x2="2001.39" y2="114.84" gradientUnits="userSpaceOnUse"><stop offset="0" stop-color="#4042e2"/><stop offset="0.58" stop-color="#4143e4"/><stop offset="0.78" stop-color="#4447eb"/><stop offset="0.93" stop-color="#4b4df6"/><stop offset="1" stop-color="#4f52ff"/></linearGradient><linearGradient id="linear-gradient-151" x1="1890.66" y1="250.07" x2="1916.66" y2="570.07" xlink:href="#linear-gradient-16"/></defs><g id="Layer_2" data-name="Layer 2"><g id="Illustration"><path class="cls-1" d="M417,61.38c-117.26,78.54-200.15,17.9-271,101.08C-75.18,422,205,520.3,74.86,560.1c-141.34,43.23-53.41,234,26.13,289.08s138.68,88.29,25.68,144.64S-6.08,1112.49,41.3,1213.88s137.15,133.35,510.21,139.37,1095.52-6.74,1292.61-64.44,53.41-206.15,136.27-317,99.16-176-27.75-283.58-54.6-218.89-16.5-297.41,67.4-220.91-85.52-261.53S1519.87,250.69,1443,168.36s-43.06-191.52-211-164S1007.48,244.59,861,232.89,665.55-105.1,417,61.38Z"/><path class="cls-2" d="M532.9,1303.77s132.77-401.92-287.78-833.9C245.12,469.87,92.27,1004.22,532.9,1303.77Z"/><path class="cls-3" d="M505.22,1208.16a1,1,0,0,1-.87-.5c-74.84-129.94-134.72-296.21-171.77-412.81-40.14-126.33-62.87-223.19-63.1-224.15a1,1,0,0,1,1.95-.46c.22,1,22.95,97.76,63.06,224,37,116.5,96.84,282.62,171.6,412.4a1,1,0,0,1-.37,1.36A.93.93,0,0,1,505.22,1208.16Z"/><path class="cls-2" d="M67.39,688.9s-79.32,561.56,417.85,600.4C485.24,1289.3,482,886.84,67.39,688.9Z"/><path class="cls-4" d="M386.13,1202.89a1,1,0,0,1-.71-.29C275.18,1091,202.08,972.82,160.17,893.36c-45.41-86.1-65-146.6-65.2-147.2a1,1,0,1,1,1.91-.61c.19.6,19.75,61,65.09,146.93,41.84,79.32,114.82,197.27,224.87,308.71a1,1,0,0,1-.71,1.7Z"/><path class="cls-5" d="M2006.18,291.43S2085.5,853,1588.33,891.83C1588.33,891.83,1591.61,489.37,2006.18,291.43Z"/><path class="cls-2" d="M1540.67,906.3S1407.9,504.38,1828.45,72.4C1828.45,72.4,1981.3,606.75,1540.67,906.3Z"/><path class="cls-6" d="M1594.27,1189c-346.58-63.12-598-52.62-758.09-28.68,10.67,30.2,21.32,77.46,9.68,129,329.12,39.69,606.38-11,750.29-47.49C1624.28,1234.67,1622.82,1194.23,1594.27,1189Z"/><path class="cls-6" d="M836.18,1160.35c-142.81,21.35-212.9,53.4-212.9,53.4l1.54,35.82a1926.3,1926.3,0,0,0,221,39.73C857.5,1237.81,846.85,1190.55,836.18,1160.35Z"/><path class="cls-5" d="M341.86,1223.11s99.54,85.44,191,80.66,100.81-47.25,98.12-85.37-37.12-91.92-102.26-77.67C438.77,1160.41,401.53,1223.82,341.86,1223.11Z"/><path class="cls-2" d="M525.44,1285.71c-19.12,0-40.35-3.69-63.27-11-46.43-14.8-84.28-39.73-84.66-40a1,1,0,1,1,1.11-1.66c.38.25,38,25,84.2,39.75,42.45,13.52,101,21.05,139-19.86a1,1,0,0,1,1.46,1.36c-17.09,18.43-39.64,28.85-67,31C532.71,1285.57,529.12,1285.71,525.44,1285.71Z"/><path class="cls-3" d="M649.06,1215.17a1,1,0,0,1-.32-2c1-.33,96.81-33.15,177.93-39.27a1,1,0,1,1,.15,2c-80.86,6.1-176.48,38.84-177.43,39.17A1,1,0,0,1,649.06,1215.17Z"/><path class="cls-7" d="M1538.84,566.36c-3.16,127.56-13.41,567.56-8.52,723.49a31.31,31.31,0,0,0,30.28,30.32c81.7,2.67,381.2,9.45,514.83,3.84a52.72,52.72,0,0,0,50.55-51.57c2.78-133.89,8.9-510.47-5.66-683a43,43,0,0,0-38.61-39.19c-89-8.9-389.76-30.66-505.21-23.17A40.33,40.33,0,0,0,1538.84,566.36Z"/><path class="cls-8" d="M1575.3,605.49c-4.4,103-18.27,445.49-13.87,572.15a35.84,35.84,0,0,0,33.73,34.56c76.14,4.46,335.91,14.28,447.58,5.34a40.28,40.28,0,0,0,37-38c5.66-105,21.91-424,17.69-549.22a39.6,39.6,0,0,0-36.06-38.08c-82.37-7.4-358.41-25-453.31-19.82A34.63,34.63,0,0,0,1575.3,605.49Z"/><path class="cls-9" d="M1740.75,549.38h0a7.35,7.35,0,0,0,7,7.35c19.3,1,73.66,3.87,98,5.28a7.35,7.35,0,0,0,7.64-8.74l-.15-.8a7.36,7.36,0,0,0-6.55-5.94c-16.42-1.5-66-5.67-98.8-4.5A7.34,7.34,0,0,0,1740.75,549.38Z"/><g class="cls-10"><polygon class="cls-3" points="1757.99 915.33 1908 920.33 1897.53 812.67 1757.99 809.5 1757.99 915.33"/><polygon class="cls-3" points="1925.91 920.92 2043.04 924.83 2043.94 816 1915.42 813.08 1925.91 920.92"/><path class="cls-3" d="M2044.09,798.23l.94-114a26,26,0,0,0-24.33-26.12l-357-22.31a26,26,0,0,0-27.54,24.74l-5.73,128.3Z"/><polygon class="cls-3" points="1740.22 809.1 1629.62 806.58 1624.95 910.9 1740.22 914.74 1740.22 809.1"/><path class="cls-3" d="M1624.16,928.65l-9.6,214.9a26,26,0,0,0,25.26,27.1l374.72,9.52a26,26,0,0,0,26.6-25.73l1.76-211.84Z"/></g><polygon class="cls-11" points="953.3 1017.68 924.56 1275.41 1257.96 1275.41 1214.53 1017.68 953.3 1017.68"/><path class="cls-12" d="M393.26,382.71V973a89.54,89.54,0,0,0,87.23,89.52c215.59,5.56,969.61,19,1174.84,16a65.88,65.88,0,0,0,64.86-64c4-137.12,10.39-466.86-13.4-619.94A67.81,67.81,0,0,0,1642,337.15C1461.33,331.38,662,313,456.88,317.63A65.09,65.09,0,0,0,393.26,382.71Z"/><path class="cls-13" d="M430.29,379.84V940.62a51.88,51.88,0,0,0,51.11,51.87l1144.4,14.14a50.49,50.49,0,0,0,51.25-50.3L1679,400.57a36.92,36.92,0,0,0-36-37.06L471.28,339.84A40,40,0,0,0,430.29,379.84Z"/><path class="cls-14" d="M1685.66,1029h0L430.28,1007.64a1,1,0,1,1,0-2L1685.68,1027a1,1,0,0,1,0,2Z"/><path class="cls-14" d="M1070.36,1055.15a14.06,14.06,0,1,1,14.06-14.06A14.08,14.08,0,0,1,1070.36,1055.15Zm0-26.12a12.06,12.06,0,1,0,12.06,12.06A12.07,12.07,0,0,0,1070.36,1029Z"/><g class="cls-15"><path class="cls-16" d="M799.35,945.66H538.26a23.3,23.3,0,0,1-23.3-23.3V581.93a23.3,23.3,0,0,1,23.3-23.3H818.48a23.3,23.3,0,0,1,23.26,24.61L822.61,923.67A23.3,23.3,0,0,1,799.35,945.66Z"/><path class="cls-3" d="M799.35,927.91h-6a2,2,0,0,1,0-4h6a1.52,1.52,0,0,0,1.39-.87,2,2,0,0,1,3.59,1.77A5.52,5.52,0,0,1,799.35,927.91Zm-16,0h-10a2,2,0,0,1,0-4h10a2,2,0,0,1,0,4Zm-20,0h-10a2,2,0,0,1,0-4h10a2,2,0,0,1,0,4Zm-20,0h-10a2,2,0,0,1,0-4h10a2,2,0,0,1,0,4Zm-20,0h-10a2,2,0,0,1,0-4h10a2,2,0,0,1,0,4Zm-20,0h-10a2,2,0,0,1,0-4h10a2,2,0,0,1,0,4Zm-20,0h-10a2,2,0,0,1,0-4h10a2,2,0,0,1,0,4Zm-20,0h-10a2,2,0,0,1,0-4h10a2,2,0,0,1,0,4Zm-20,0h-10a2,2,0,0,1,0-4h10a2,2,0,0,1,0,4Zm-20,0h-10a2,2,0,0,1,0-4h10a2,2,0,0,1,0,4Zm-20,0h-10a2,2,0,0,1,0-4h10a2,2,0,0,1,0,4Zm-20,0h-10a2,2,0,0,1,0-4h10a2,2,0,0,1,0,4Zm-20,0h-10a2,2,0,0,1,0-4h10a2,2,0,0,1,0,4Zm-20,0h-5a5.57,5.57,0,0,1-5.56-5.55v-4.42a2,2,0,0,1,4,0v4.42a1.55,1.55,0,0,0,1.56,1.55h5a2,2,0,0,1,0,4ZM803.38,916h-.12a2,2,0,0,1-1.88-2.11l.56-10a2,2,0,0,1,4,.22l-.57,10A2,2,0,0,1,803.38,916Zm-268.68-6a2,2,0,0,1-2-2v-10a2,2,0,0,1,4,0v10A2,2,0,0,1,534.7,909.94ZM804.5,896h-.11a2,2,0,0,1-1.89-2.11l.56-10a2,2,0,1,1,4,.22l-.56,10A2,2,0,0,1,804.5,896Zm-269.8-6.09a2,2,0,0,1-2-2v-10a2,2,0,0,1,4,0v10A2,2,0,0,1,534.7,889.94Zm270.92-13.88h-.11a2,2,0,0,1-1.89-2.11l.57-10a2,2,0,0,1,4,.23l-.56,10A2,2,0,0,1,805.62,876.06ZM534.7,869.94a2,2,0,0,1-2-2v-10a2,2,0,0,1,4,0v10A2,2,0,0,1,534.7,869.94Zm272-13.85h-.12a2,2,0,0,1-1.88-2.11l.56-10a2,2,0,0,1,4,.23l-.56,10A2,2,0,0,1,806.75,856.09Zm-272-6.15a2,2,0,0,1-2-2v-10a2,2,0,0,1,4,0v10A2,2,0,0,1,534.7,849.94Zm273.17-13.82h-.12a2,2,0,0,1-1.88-2.11l.56-10a2,2,0,0,1,2.11-1.88,2,2,0,0,1,1.88,2.11l-.56,10A2,2,0,0,1,807.87,836.12ZM534.7,829.94a2,2,0,0,1-2-2v-10a2,2,0,0,1,4,0v10A2,2,0,0,1,534.7,829.94ZM809,816.15h-.11A2,2,0,0,1,807,814l.56-10a2,2,0,0,1,2.11-1.88,2,2,0,0,1,1.89,2.11l-.56,10A2,2,0,0,1,809,816.15ZM534.7,809.94a2,2,0,0,1-2-2v-10a2,2,0,0,1,4,0v10A2,2,0,0,1,534.7,809.94Zm275.41-13.76H810a2,2,0,0,1-1.89-2.11l.56-10a2,2,0,0,1,2.11-1.89,2,2,0,0,1,1.89,2.11l-.56,10A2,2,0,0,1,810.11,796.18ZM534.7,789.94a2,2,0,0,1-2-2v-10a2,2,0,0,1,4,0v10A2,2,0,0,1,534.7,789.94Zm276.54-13.73h-.12a2,2,0,0,1-1.88-2.11l.56-10a2,2,0,1,1,4,.22l-.56,10A2,2,0,0,1,811.24,776.21ZM534.7,769.94a2,2,0,0,1-2-2v-10a2,2,0,0,1,4,0v10A2,2,0,0,1,534.7,769.94Zm277.66-13.69h-.12a2,2,0,0,1-1.88-2.11l.56-10a2,2,0,0,1,2.11-1.89,2,2,0,0,1,1.88,2.11l-.56,10A2,2,0,0,1,812.36,756.25ZM534.7,749.94a2,2,0,0,1-2-2v-10a2,2,0,0,1,4,0v10A2,2,0,0,1,534.7,749.94Zm278.78-13.66h-.11a2,2,0,0,1-1.89-2.1l.56-10a2,2,0,0,1,4,.23l-.57,10A2,2,0,0,1,813.48,736.28ZM534.7,729.94a2,2,0,0,1-2-2v-10a2,2,0,0,1,4,0v10A2,2,0,0,1,534.7,729.94Zm279.9-13.63h-.11a2,2,0,0,1-1.89-2.11l.56-10a2,2,0,0,1,4,.23l-.56,10A2,2,0,0,1,814.6,716.31Zm-279.9-6.37a2,2,0,0,1-2-2v-10a2,2,0,0,1,4,0v10A2,2,0,0,1,534.7,709.94Zm281-13.6h-.11a2,2,0,0,1-1.88-2.11l.56-10a2,2,0,0,1,4,.23l-.56,10A2,2,0,0,1,815.72,696.34Zm-281-6.4a2,2,0,0,1-2-2v-10a2,2,0,0,1,4,0v10A2,2,0,0,1,534.7,689.94Zm282.15-13.57h-.12a2,2,0,0,1-1.88-2.11l.56-10a2,2,0,0,1,2.11-1.89,2,2,0,0,1,1.88,2.11l-.56,10A2,2,0,0,1,816.85,676.37ZM534.7,669.94a2,2,0,0,1-2-2v-10a2,2,0,0,1,4,0v10A2,2,0,0,1,534.7,669.94ZM818,656.4h-.12a2,2,0,0,1-1.88-2.11l.56-10a2,2,0,1,1,4,.22l-.57,10A2,2,0,0,1,818,656.4ZM534.7,649.94a2,2,0,0,1-2-2v-10a2,2,0,0,1,4,0v10A2,2,0,0,1,534.7,649.94Zm284.39-13.5H819a2,2,0,0,1-1.89-2.11l.56-10a2,2,0,0,1,2.11-1.89,2,2,0,0,1,1.89,2.11l-.56,10A2,2,0,0,1,819.09,636.44Zm-284.39-6.5a2,2,0,0,1-2-2v-10a2,2,0,0,1,4,0v10A2,2,0,0,1,534.7,629.94Zm285.51-13.47h-.11a2,2,0,0,1-1.89-2.11l.57-10a2,2,0,0,1,4,.22l-.56,10A2,2,0,0,1,820.21,616.47ZM534.7,609.94a2,2,0,0,1-2-2v-10a2,2,0,0,1,4,0v10A2,2,0,0,1,534.7,609.94ZM821.34,596.5h-.12a2,2,0,0,1-1.88-2.11l.56-10a2,2,0,0,1,4,.23l-.56,10A2,2,0,0,1,821.34,596.5ZM534.7,589.94a2,2,0,0,1-2-2v-6a5.59,5.59,0,0,1,3.14-5,2,2,0,0,1,1.75,3.6,1.57,1.57,0,0,0-.89,1.4v6A2,2,0,0,1,534.7,589.94Zm282-9.56h-10a2,2,0,0,1,0-4h10a2,2,0,0,1,0,4Zm-20,0h-10a2,2,0,0,1,0-4h10a2,2,0,0,1,0,4Zm-20,0h-10a2,2,0,0,1,0-4h10a2,2,0,0,1,0,4Zm-20,0h-10a2,2,0,0,1,0-4h10a2,2,0,0,1,0,4Zm-20,0h-10a2,2,0,0,1,0-4h10a2,2,0,0,1,0,4Zm-20,0h-10a2,2,0,0,1,0-4h10a2,2,0,0,1,0,4Zm-20,0h-10a2,2,0,0,1,0-4h10a2,2,0,0,1,0,4Zm-20,0h-10a2,2,0,0,1,0-4h10a2,2,0,0,1,0,4Zm-20,0h-10a2,2,0,0,1,0-4h10a2,2,0,0,1,0,4Zm-20,0h-10a2,2,0,0,1,0-4h10a2,2,0,0,1,0,4Zm-20,0h-10a2,2,0,0,1,0-4h10a2,2,0,0,1,0,4Zm-20,0h-10a2,2,0,0,1,0-4h10a2,2,0,0,1,0,4Zm-20,0h-10a2,2,0,0,1,0-4h10a2,2,0,0,1,0,4Zm-20,0h-10a2,2,0,0,1,0-4h10a2,2,0,0,1,0,4Z"/><path class="cls-3" d="M1196.27,947.66h-10a2,2,0,0,1,0-4h10a21.22,21.22,0,0,0,8.52-1.77,2,2,0,0,1,1.6,3.66A25,25,0,0,1,1196.27,947.66Zm-20,0h-10a2,2,0,0,1,0-4h10a2,2,0,0,1,0,4Zm-20,0h-10a2,2,0,0,1,0-4h10a2,2,0,0,1,0,4Zm-20,0h-10a2,2,0,0,1,0-4h10a2,2,0,0,1,0,4Zm-20,0h-10a2,2,0,0,1,0-4h10a2,2,0,0,1,0,4Zm-20,0h-10a2,2,0,0,1,0-4h10a2,2,0,0,1,0,4Zm-20,0h-10a2,2,0,0,1,0-4h10a2,2,0,0,1,0,4Zm-20,0h-10a2,2,0,0,1,0-4h10a2,2,0,0,1,0,4Zm-20,0h-10a2,2,0,0,1,0-4h10a2,2,0,0,1,0,4Zm-20,0h-10a2,2,0,0,1,0-4h10a2,2,0,0,1,0,4Zm-20,0h-10a2,2,0,0,1,0-4h10a2,2,0,0,1,0,4Zm-20,0h-10a2,2,0,0,1,0-4h10a2,2,0,0,1,0,4Zm-20,0h-10a2,2,0,0,1,0-4h10a2,2,0,0,1,0,4Zm-20,0h-10a2,2,0,0,1,0-4h10a2,2,0,0,1,0,4Zm-20,0h-10a2,2,0,0,1,0-4h10a2,2,0,0,1,0,4Zm-20,0h-.51a25.27,25.27,0,0,1-10-2.06,2,2,0,0,1,1.59-3.68,21.14,21.14,0,0,0,8.43,1.74h.51a2,2,0,0,1,0,4ZM878.48,940a2,2,0,0,1-1.49-.66,25.58,25.58,0,0,1-5.36-9.35,2,2,0,0,1,3.82-1.2,21.48,21.48,0,0,0,4.51,7.86,2,2,0,0,1-1.48,3.35Zm335.15-.08a2,2,0,0,1-1.34-.51,2,2,0,0,1-.15-2.82,21.53,21.53,0,0,0,4.48-7.89,2,2,0,0,1,3.82,1.19,25.49,25.49,0,0,1-5.32,9.37A2,2,0,0,1,1213.63,939.9Zm-341-18.42h-.11a2,2,0,0,1-1.89-2.11l.57-10a2,2,0,1,1,4,.22l-.56,10A2,2,0,0,1,872.59,921.48Zm346.84-.09a2,2,0,0,1-2-1.88l-.61-10a2,2,0,1,1,4-.24l.61,10a2,2,0,0,1-1.88,2.12ZM873.71,901.52h-.11a2,2,0,0,1-1.88-2.11l.56-10a2,2,0,0,1,4,.22l-.56,10A2,2,0,0,1,873.71,901.52Zm344.5-.09a2,2,0,0,1-2-1.88l-.61-10a2,2,0,0,1,4-.25l.61,10a2,2,0,0,1-1.87,2.12ZM874.84,881.55h-.12a2,2,0,0,1-1.88-2.1l.56-10a2,2,0,0,1,2.11-1.88,2,2,0,0,1,1.88,2.11l-.56,10A2,2,0,0,1,874.84,881.55Zm342.16-.09a2,2,0,0,1-2-1.87l-.61-10a2,2,0,0,1,1.88-2.11,2,2,0,0,1,2.11,1.87l.61,10a2,2,0,0,1-1.87,2.12ZM876,861.58h-.11a2,2,0,0,1-1.89-2.11l.56-10a2,2,0,0,1,4,.23l-.56,10A2,2,0,0,1,876,861.58Zm339.82-.08a2,2,0,0,1-2-1.88l-.61-10a2,2,0,0,1,1.88-2.12,2,2,0,0,1,2.12,1.88l.61,10a2,2,0,0,1-1.88,2.12Zm-338.7-19.89H877a2,2,0,0,1-1.89-2.11l.56-10a2,2,0,0,1,4,.23l-.56,10A2,2,0,0,1,877.08,841.61Zm337.48-.07a2,2,0,0,1-2-1.88l-.61-10a2,2,0,0,1,4-.25l.61,10a2,2,0,0,1-1.88,2.11ZM878.2,821.64h-.11a2,2,0,0,1-1.88-2.11l.56-10a2,2,0,1,1,4,.22l-.56,10A2,2,0,0,1,878.2,821.64Zm335.14-.07a2,2,0,0,1-2-1.87l-.61-10a2,2,0,0,1,1.87-2.11,2,2,0,0,1,2.12,1.87l.61,10a2,2,0,0,1-1.87,2.12Zm-334-19.9h-.12a2,2,0,0,1-1.88-2.11l.56-10a2,2,0,1,1,4,.22l-.56,10A2,2,0,0,1,879.33,801.67Zm332.79-.06a2,2,0,0,1-2-1.88l-.61-10a2,2,0,0,1,1.88-2.12,2,2,0,0,1,2.11,1.88l.61,10a2,2,0,0,1-1.87,2.12Zm-331.67-19.9h-.11a2,2,0,0,1-1.89-2.11l.56-10a2,2,0,1,1,4,.22l-.57,10A2,2,0,0,1,880.45,781.71Zm330.46-.06a2,2,0,0,1-2-1.88l-.61-10a2,2,0,0,1,1.88-2.12,2,2,0,0,1,2.12,1.88l.6,10a2,2,0,0,1-1.87,2.12ZM881.57,761.74h-.11a2,2,0,0,1-1.89-2.11l.56-10a2,2,0,1,1,4,.22l-.56,10A2,2,0,0,1,881.57,761.74Zm328.12,0a2,2,0,0,1-2-1.88l-.6-10a2,2,0,0,1,4-.25l.61,10a2,2,0,0,1-1.88,2.12Zm-327-19.92h-.11a2,2,0,0,1-1.89-2.11l.57-10a2,2,0,0,1,4,.23l-.56,10A2,2,0,0,1,882.69,741.77Zm325.78,0a2,2,0,0,1-2-1.88l-.61-10a2,2,0,0,1,4-.24l.61,10a2,2,0,0,1-1.88,2.12ZM883.82,721.8h-.12a2,2,0,0,1-1.88-2.11l.56-10a2,2,0,1,1,4,.23l-.56,10A2,2,0,0,1,883.82,721.8Zm323.43,0a2,2,0,0,1-2-1.88l-.61-10a2,2,0,0,1,1.87-2.12,2,2,0,0,1,2.12,1.88l.61,10a2,2,0,0,1-1.87,2.12ZM884.94,701.83h-.12a2,2,0,0,1-1.88-2.11l.56-10a2,2,0,0,1,4,.23l-.56,10A2,2,0,0,1,884.94,701.83Zm321.1,0a2,2,0,0,1-2-1.88l-.61-10a2,2,0,0,1,1.88-2.12,2,2,0,0,1,2.11,1.87l.61,10a2,2,0,0,1-1.87,2.11Zm-320-19.94H886a2,2,0,0,1-1.89-2.11l.56-10a2,2,0,1,1,4,.22l-.56,10A2,2,0,0,1,886.06,681.86Zm318.76,0a2,2,0,0,1-2-1.87l-.61-10a2,2,0,0,1,4-.24l.61,10a2,2,0,0,1-1.88,2.12ZM887.18,661.89h-.11a2,2,0,0,1-1.89-2.11l.56-10a2,2,0,1,1,4,.22l-.56,10A2,2,0,0,1,887.18,661.89Zm316.42,0a2,2,0,0,1-2-1.88l-.61-10a2,2,0,1,1,4-.24l.61,10a2,2,0,0,1-1.88,2.12ZM888.3,641.93h-.11a2,2,0,0,1-1.88-2.11l.56-10a2,2,0,1,1,4,.22l-.56,10A2,2,0,0,1,888.3,641.93Zm314.08,0a2,2,0,0,1-2-1.88l-.61-10a2,2,0,1,1,4-.24l.61,10a2,2,0,0,1-1.87,2.11ZM889.43,622h-.12a2,2,0,0,1-1.88-2.11l.56-10a2,2,0,0,1,4,.23l-.56,10A2,2,0,0,1,889.43,622Zm311.73,0a2,2,0,0,1-2-1.88l-.61-10a2,2,0,0,1,4-.25l.61,10a2,2,0,0,1-1.87,2.12ZM890.55,602h-.12a2,2,0,0,1-1.88-2.11l.56-10a2,2,0,0,1,2.11-1.88,2,2,0,0,1,1.89,2.11l-.57,10A2,2,0,0,1,890.55,602Zm309.4,0a2,2,0,0,1-2-1.88l-.61-10a2,2,0,0,1,4-.24l.6,10a2,2,0,0,1-1.87,2.12Zm-1.23-20a2,2,0,0,1-2-1.84,21.16,21.16,0,0,0-2.64-8.67,2,2,0,0,1,3.48-2,25.09,25.09,0,0,1,3.15,10.31,2,2,0,0,1-1.83,2.15Zm-307,0h-.17a2,2,0,0,1-1.83-2.15,25,25,0,0,1,3.15-10.31,2,2,0,0,1,3.49,2,21,21,0,0,0-2.65,8.67A2,2,0,0,1,891.68,582Zm297.56-16.91a2,2,0,0,1-1.18-.38,21.05,21.05,0,0,0-8.29-3.67,2,2,0,0,1,.8-3.92,25.11,25.11,0,0,1,9.85,4.36,2,2,0,0,1-1.18,3.61Zm-288.08,0A2,2,0,0,1,900,561.5a25,25,0,0,1,9.86-4.36,2,2,0,1,1,.79,3.92,21.05,21.05,0,0,0-8.29,3.67A2,2,0,0,1,901.16,565.11Zm269-4.48h-10a2,2,0,0,1,0-4h10a2,2,0,0,1,0,4Zm-20,0h-10a2,2,0,0,1,0-4h10a2,2,0,0,1,0,4Zm-20,0h-10a2,2,0,0,1,0-4h10a2,2,0,0,1,0,4Zm-20,0h-10a2,2,0,0,1,0-4h10a2,2,0,0,1,0,4Zm-20,0h-10a2,2,0,0,1,0-4h10a2,2,0,0,1,0,4Zm-20,0h-10a2,2,0,0,1,0-4h10a2,2,0,0,1,0,4Zm-20,0h-10a2,2,0,0,1,0-4h10a2,2,0,0,1,0,4Zm-20,0h-10a2,2,0,0,1,0-4h10a2,2,0,0,1,0,4Zm-20,0h-10a2,2,0,0,1,0-4h10a2,2,0,0,1,0,4Zm-20,0h-10a2,2,0,0,1,0-4h10a2,2,0,0,1,0,4Zm-20,0h-10a2,2,0,0,1,0-4h10a2,2,0,0,1,0,4Zm-20,0h-10a2,2,0,0,1,0-4h10a2,2,0,0,1,0,4Zm-20,0h-10a2,2,0,0,1,0-4h10a2,2,0,0,1,0,4Z"/><path class="cls-3" d="M1575.65,947.66h-10a2,2,0,0,1,0-4h10a2,2,0,0,1,0,4Zm-20,0h-10a2,2,0,0,1,0-4h10a2,2,0,0,1,0,4Zm-20,0h-10a2,2,0,0,1,0-4h10a2,2,0,0,1,0,4Zm-20,0h-10a2,2,0,0,1,0-4h10a2,2,0,0,1,0,4Zm-20,0h-10a2,2,0,0,1,0-4h10a2,2,0,0,1,0,4Zm-20,0h-10a2,2,0,0,1,0-4h10a2,2,0,0,1,0,4Zm-20,0h-10a2,2,0,0,1,0-4h10a2,2,0,0,1,0,4Zm-20,0h-10a2,2,0,0,1,0-4h10a2,2,0,0,1,0,4Zm-20,0h-10a2,2,0,0,1,0-4h10a2,2,0,0,1,0,4Zm-20,0h-10a2,2,0,0,1,0-4h10a2,2,0,0,1,0,4Zm-20,0h-10a2,2,0,0,1,0-4h10a2,2,0,0,1,0,4Zm-20,0h-10a2,2,0,0,1,0-4h10a2,2,0,0,1,0,4Zm-20,0h-10a2,2,0,0,1,0-4h10a2,2,0,0,1,0,4Zm-20,0h-10a2,2,0,0,1,0-4h10a2,2,0,0,1,0,4Zm-20,0h-3a25.3,25.3,0,0,1-7.54-1.15,2,2,0,0,1,1.19-3.82,21.31,21.31,0,0,0,6.35,1h3a2,2,0,0,1,0,4Zm284.55-.45a2,2,0,0,1-.38-4,21.12,21.12,0,0,0,8.31-3.63,2,2,0,1,1,2.34,3.24,25,25,0,0,1-9.88,4.31A1.72,1.72,0,0,1,1580.2,947.21Zm-303.07-5.52a2,2,0,0,1-1.33-.51,25.28,25.28,0,0,1-6.3-8.74,2,2,0,1,1,3.67-1.59,21.32,21.32,0,0,0,5.3,7.35,2,2,0,0,1,.15,2.83A2,2,0,0,1,1277.13,941.69Zm318.79-5.84a2,2,0,0,1-1-.26,2,2,0,0,1-.75-2.72,21.18,21.18,0,0,0,2.69-8.66,2,2,0,1,1,4,.34,25.05,25.05,0,0,1-3.19,10.29A2,2,0,0,1,1595.92,935.85Zm-326.59-11.93a2,2,0,0,1-2-1.88l-.61-10a2,2,0,1,1,4-.25l.61,10a2,2,0,0,1-1.87,2.12ZM1599,916.38a2,2,0,0,1-2-2v-10a2,2,0,1,1,4,0v10A2,2,0,0,1,1599,916.38ZM1268.12,904a2,2,0,0,1-2-1.87l-.61-10a2,2,0,0,1,4-.24l.61,10a2,2,0,0,1-1.87,2.12ZM1599,896.38a2,2,0,0,1-2-2v-10a2,2,0,1,1,4,0v10A2,2,0,0,1,1599,896.38ZM1266.9,884a2,2,0,0,1-2-1.88l-.61-10a2,2,0,0,1,4-.24l.61,10A2,2,0,0,1,1267,884Zm332-7.61a2,2,0,0,1-2-2v-10a2,2,0,1,1,4,0v10A2,2,0,0,1,1599,876.38ZM1265.68,864a2,2,0,0,1-2-1.88l-.61-10a2,2,0,0,1,1.87-2.12,2,2,0,0,1,2.12,1.87l.61,10a2,2,0,0,1-1.88,2.11ZM1599,856.38a2,2,0,0,1-2-2v-10a2,2,0,1,1,4,0v10A2,2,0,0,1,1599,856.38Zm-334.49-12.31a2,2,0,0,1-2-1.88l-.61-10a2,2,0,0,1,4-.25l.61,10a2,2,0,0,1-1.87,2.12ZM1599,836.38a2,2,0,0,1-2-2v-10a2,2,0,1,1,4,0v10A2,2,0,0,1,1599,836.38ZM1263.24,824.1a2,2,0,0,1-2-1.88l-.61-10a2,2,0,0,1,4-.24l.61,10a2,2,0,0,1-1.87,2.12ZM1599,816.38a2,2,0,0,1-2-2v-10a2,2,0,1,1,4,0v10A2,2,0,0,1,1599,816.38ZM1262,804.14a2,2,0,0,1-2-1.88l-.61-10a2,2,0,0,1,1.88-2.12,2,2,0,0,1,2.12,1.88l.6,10a2,2,0,0,1-1.87,2.12ZM1599,796.38a2,2,0,0,1-2-2v-10a2,2,0,1,1,4,0v10A2,2,0,0,1,1599,796.38Zm-338.14-12.2a2,2,0,0,1-2-1.88l-.6-10a2,2,0,0,1,4-.25l.61,10a2,2,0,0,1-1.88,2.11Zm338.14-7.8a2,2,0,0,1-2-2v-10a2,2,0,1,1,4,0v10A2,2,0,0,1,1599,776.38Zm-339.36-12.17a2,2,0,0,1-2-1.87l-.61-10a2,2,0,0,1,4-.24l.61,10a2,2,0,0,1-1.88,2.12ZM1599,756.38a2,2,0,0,1-2-2v-10a2,2,0,1,1,4,0v10A2,2,0,0,1,1599,756.38Zm-340.58-12.13a2,2,0,0,1-2-1.88l-.61-10a2,2,0,1,1,4-.24l.61,10a2,2,0,0,1-1.87,2.12ZM1599,736.38a2,2,0,0,1-2-2v-10a2,2,0,1,1,4,0v10A2,2,0,0,1,1599,736.38Zm-341.79-12.09a2,2,0,0,1-2-1.88l-.61-10a2,2,0,1,1,4-.24l.6,10a2,2,0,0,1-1.87,2.11ZM1599,716.38a2,2,0,0,1-2-2v-10a2,2,0,1,1,4,0v10A2,2,0,0,1,1599,716.38Zm-343-12a2,2,0,0,1-2-1.88l-.6-10a2,2,0,0,1,4-.25l.61,10a2,2,0,0,1-1.88,2.12Zm343-8a2,2,0,0,1-2-2v-10a2,2,0,1,1,4,0v10A2,2,0,0,1,1599,696.38Zm-344.23-12a2,2,0,0,1-2-1.88l-.61-10a2,2,0,1,1,4-.24l.61,10a2,2,0,0,1-1.88,2.12Zm344.23-8a2,2,0,0,1-2-2v-10a2,2,0,1,1,4,0v10A2,2,0,0,1,1599,676.38Zm-345.45-12a2,2,0,0,1-2-1.88l-.61-10a2,2,0,1,1,4-.24l.61,10a2,2,0,0,1-1.87,2.12Zm345.45-8a2,2,0,0,1-2-2v-10a2,2,0,1,1,4,0v10A2,2,0,0,1,1599,656.38Zm-346.66-11.94a2,2,0,0,1-2-1.88l-.61-10a2,2,0,0,1,1.88-2.12,2,2,0,0,1,2.11,1.87l.61,10a2,2,0,0,1-1.87,2.12ZM1599,636.38a2,2,0,0,1-2-2v-10a2,2,0,1,1,4,0v10A2,2,0,0,1,1599,636.38Zm-347.88-11.91a2,2,0,0,1-2-1.87l-.61-10a2,2,0,0,1,4-.24l.61,10a2,2,0,0,1-1.88,2.12ZM1599,616.38a2,2,0,0,1-2-2v-10a2,2,0,1,1,4,0v10A2,2,0,0,1,1599,616.38Zm-349.1-11.87a2,2,0,0,1-2-1.88l-.61-10a2,2,0,1,1,4-.24l.61,10a2,2,0,0,1-1.88,2.12Zm349.1-8.13a2,2,0,0,1-2-2v-10a2,2,0,1,1,4,0v10A2,2,0,0,1,1599,596.38Zm-350.3-11.83a2,2,0,0,1-2-1.95c0-.23,0-.46,0-.7a25,25,0,0,1,2-9.88,2,2,0,1,1,3.68,1.57,20.94,20.94,0,0,0-1.7,8.31c0,.2,0,.4,0,.59a2,2,0,0,1-2,2.06Zm349.09-8a2,2,0,0,1-1.9-1.37,21.39,21.39,0,0,0-4.65-7.78,2,2,0,0,1,2.92-2.74,25.62,25.62,0,0,1,5.53,9.25,2,2,0,0,1-1.26,2.53A2.05,2.05,0,0,1,1597.74,576.52Zm-341.5-9.81a2,2,0,0,1-1.35-3.47,25,25,0,0,1,9.32-5.41,2,2,0,1,1,1.22,3.81,21.2,21.2,0,0,0-7.84,4.55A2,2,0,0,1,1256.24,566.71Zm328.24-4.34a2.06,2.06,0,0,1-.76-.15,21.19,21.19,0,0,0-8.07-1.59h-.94a2,2,0,0,1,0-4h.94a25.15,25.15,0,0,1,9.59,1.89,2,2,0,0,1-.76,3.85Zm-19.77-1.74h-10a2,2,0,0,1,0-4h10a2,2,0,0,1,0,4Zm-20,0h-10a2,2,0,0,1,0-4h10a2,2,0,0,1,0,4Zm-20,0h-10a2,2,0,0,1,0-4h10a2,2,0,0,1,0,4Zm-20,0h-10a2,2,0,0,1,0-4h10a2,2,0,0,1,0,4Zm-20,0h-10a2,2,0,0,1,0-4h10a2,2,0,0,1,0,4Zm-20,0h-10a2,2,0,0,1,0-4h10a2,2,0,0,1,0,4Zm-20,0h-10a2,2,0,0,1,0-4h10a2,2,0,0,1,0,4Zm-20,0h-10a2,2,0,0,1,0-4h10a2,2,0,0,1,0,4Zm-20,0h-10a2,2,0,0,1,0-4h10a2,2,0,0,1,0,4Zm-20,0h-10a2,2,0,0,1,0-4h10a2,2,0,0,1,0,4Zm-20,0h-10a2,2,0,0,1,0-4h10a2,2,0,0,1,0,4Zm-20,0h-10a2,2,0,0,1,0-4h10a2,2,0,0,1,0,4Zm-20,0h-10a2,2,0,0,1,0-4h10a2,2,0,0,1,0,4Zm-20,0h-10a2,2,0,0,1,0-4h10a2,2,0,0,1,0,4Zm-20,0h-10a2,2,0,0,1,0-4h10a2,2,0,0,1,0,4Z"/></g><path class="cls-5" d="M893,1309.65c-132.54-65.79-234.79-169.29-246.2-385.87C646.79,923.78,991.76,1039,893,1309.65Z"/><path class="cls-2" d="M879.6,1304.3c-93.16,8.6-182.53-13.15-260.57-125.89C619,1178.41,842.88,1125.86,879.6,1304.3Z"/><path class="cls-5" d="M1298.17,1322.37c-62.1-134.31-77-279,49.79-455C1348,867.36,1544.73,1173.23,1298.17,1322.37Z"/><path class="cls-17" d="M1329.77,1328.14H841.83c-13.26,0-23.22-9.44-20.65-19.58l6.26-24.76c1.88-7.45,10.07-12.91,19.8-13.22l470.4-14.67c10.17-.32,19.17,5.07,21.38,12.81l11.29,39.44C1353.24,1318.41,1343.24,1328.14,1329.77,1328.14Z"/><path class="cls-5" d="M1104.5,1276.7a1,1,0,0,1,0-2l20.16-.29a1,1,0,0,1,0,2l-20.16.29Z"/><path class="cls-5" d="M839.24,1313.89h-.16a1,1,0,0,1-.83-1.14l2.88-18a19.5,19.5,0,0,1,19-16.46l213.8-3.12a1,1,0,0,1,0,2l-213.8,3.12A17.52,17.52,0,0,0,843.1,1295l-2.87,18A1,1,0,0,1,839.24,1313.89Z"/><path class="cls-2" d="M871.55,1260.31a1,1,0,0,1-.94-.67c-31.52-89.85-78.35-159.13-112.1-201.43-36.57-45.84-66.06-70.74-66.35-71a1,1,0,1,1,1.28-1.53c.3.24,29.91,25.25,66.6,71.23,33.85,42.43,80.84,111.92,112.46,202.06a1,1,0,0,1-.62,1.27A1,1,0,0,1,871.55,1260.31Z"/><path class="cls-2" d="M1314.51,1240.28a1.06,1.06,0,0,1-.31,0,1,1,0,0,1-.65-1.25c46.61-146,33.4-316.86,33.27-318.57a1,1,0,0,1,.91-1.08,1,1,0,0,1,1.08.92c0,.42,3.45,43.53,1,104.14-2.22,55.95-10,138.71-34.4,215.19A1,1,0,0,1,1314.51,1240.28Z"/><path class="cls-18" d="M826.74,1273.77a1,1,0,0,1-.76-.36c-52.76-62.18-170.65-82.23-171.84-82.42a1,1,0,0,1-.82-1.15,1,1,0,0,1,1.14-.83,441.44,441.44,0,0,1,66.29,17.74c33.34,11.71,78.92,32.56,106.76,65.37a1,1,0,0,1-.77,1.65Z"/><g class="cls-19"><ellipse class="cls-2" cx="1917.82" cy="955.07" rx="135.53" ry="138.02" transform="translate(-153.47 1502.75) rotate(-41.28)"/></g><path class="cls-20" d="M2031.14,855.57c-56-63.73-152.06-70.85-214.65-15.9s-68,151.16-12,214.9,152.06,70.86,214.65,15.9S2087.1,919.31,2031.14,855.57Zm-210,184.38c-47.74-54.37-43.16-136.45,10.24-183.33s135.37-40.81,183.12,13.57,43.15,136.45-10.24,183.33S1868.89,1094.33,1821.14,1040Z"/><path class="cls-5" d="M2057.53,935.1a.49.49,0,0,1-.49-.42A143.94,143.94,0,0,0,2023,862.74c-38.51-43.87-98.54-60.2-152.92-41.6h0a138,138,0,0,0-26.48,12.34.48.48,0,0,1-.68-.17.49.49,0,0,1,.17-.68,138.3,138.3,0,0,1,26.67-12.44h0a141.34,141.34,0,0,1,81.92-2.8A145.76,145.76,0,0,1,2058,934.52a.5.5,0,0,1-.41.58Zm-246.6-74.51a.5.5,0,0,1-.33-.13.5.5,0,0,1,0-.7c2.37-2.69,4.88-5.32,7.47-7.83a.5.5,0,0,1,.69.72c-2.56,2.49-5.06,5.1-7.41,7.77A.52.52,0,0,1,1810.93,860.59Z"/><path class="cls-21" d="M1915.38,1096.1l-14.32,297.18a21.41,21.41,0,0,0,22,22.43l2-.06a19.9,19.9,0,0,0,19.3-20.61l-10.78-298.92Z"/><path class="cls-3" d="M1922.76,1409.89a13.62,13.62,0,0,1-4.77-.88,16.09,16.09,0,0,1-10.23-15.69l.91-36a.51.51,0,0,1,.51-.48.49.49,0,0,1,.49.51l-.91,36a15.08,15.08,0,0,0,9.58,14.72c5.84,2.16,11.7,0,17.42-6.39a.51.51,0,0,1,.71,0,.51.51,0,0,1,0,.71C1932,1407.37,1927.4,1409.89,1922.76,1409.89Z"/><path class="cls-3" d="M1909.45,1346.72h0a.51.51,0,0,1-.49-.51l.12-4.67a.52.52,0,0,1,.51-.49.5.5,0,0,1,.49.51l-.12,4.67A.5.5,0,0,1,1909.45,1346.72Z"/><path class="cls-22" d="M291.2,1445.76l144.31-96.39a60.76,60.76,0,0,1,33-10.22c131-1.6,938.76-10.6,1125.63,9.23a45,45,0,0,1,24.55,10.62l101.2,86.76Z"/><path class="cls-23" d="M294.85,1458l-3.65-12.28H1719.85l-6,11.52a24.13,24.13,0,0,1-21.37,12.91H311.13A17,17,0,0,1,294.85,1458Z"/><path class="cls-24" d="M380.84,1414.91,457,1361.69a40.33,40.33,0,0,1,23.25-7.27l1076.61,4.45a59.85,59.85,0,0,1,39.18,14.82l39.8,34.82a8.07,8.07,0,0,1-5.27,14.13l-1245,6.94A8.06,8.06,0,0,1,380.84,1414.91Z"/><path class="cls-25" d="M1592.49,1374.08a15.68,15.68,0,0,0,3.72-.2c-.12-.11,1.87-1,0-2.08l-35.52-12.2a52.81,52.81,0,0,0-7.83-.75l-18.22-2.12c-2.17,0-2.29,3.4-.91,5.08l7.71,9.33a9.49,9.49,0,0,0,6.46,3Z"/><path class="cls-26" d="M1527.41,1385.16a9.54,9.54,0,0,0-6.46-3l-66.23-1.87c-2.17,0-2.25,3.5-1.06,5.31l5.85,8.89a8.12,8.12,0,0,0,6.12,3.29l68.11-.14c2.17,0,3-3.21,1.61-4.89Z"/><path class="cls-27" d="M1514.44,1374.24c2.17,0,3.06-3.13,1.67-4.81l-8.07-7.73a9.61,9.61,0,0,0-6.46-3.06l-62.47-2.28c-2.17,0-2.36,3.49-1.17,5.31l6.19,9.41a8.16,8.16,0,0,0,6.12,3.29Z"/><path class="cls-28" d="M1344.18,1386a7.12,7.12,0,0,0-5.77-3.49l-56.46-1.44c-2.18,0-2.42,3.23-1.68,5.27l2.92,8.07a6.05,6.05,0,0,0,5.29,3.71l58-.12c2.18,0,3.32-3.23,2.32-5.16Z"/><path class="cls-29" d="M1430.06,1385.61a8.2,8.2,0,0,0-6.12-3.29l-56.35-1.84c-2.17,0-2.2,3.54-1.21,5.47l4.39,8.48a7.15,7.15,0,0,0,5.77,3.5l57.59-.12c2.17,0,3-3.57,1.78-5.39Z"/><path class="cls-30" d="M1168,1375c2.18,0,3.66-3.08,3.19-5.21l-2.29-8.62a5.18,5.18,0,0,0-4.8-3.87l-57.41-.24a3.72,3.72,0,0,0-3.76,3.93l.5,10.2a4.18,4.18,0,0,0,4.14,3.93Z"/><path class="cls-31" d="M1251.14,1374.78c2.18,0,3.53-3.07,2.79-5.11l-3.71-8.36a6.09,6.09,0,0,0-5.29-3.73l-54-1.28c-2.17,0-2.3,2.78-1.83,4.9l2.17,9.84a5.14,5.14,0,0,0,4.8,3.85Z"/><path class="cls-32" d="M1334.33,1374.61c2.17,0,3.28-3.31,2.28-5.24l-5.15-7.93a7.19,7.19,0,0,0-5.76-3.53L1273,1356.3c-2.17,0-2.47,3-1.73,5.1l3.48,9.61a6,6,0,0,0,5.29,3.71Z"/><path class="cls-33" d="M1418.75,1374.44c2.18,0,3-3.57,1.78-5.39l-6.29-7.48a8.25,8.25,0,0,0-6.11-3.32l-53.06-1.94c-2.17,0-2.33,3.29-1.33,5.22l4.93,9.52a7.13,7.13,0,0,0,5.76,3.5Z"/><path class="cls-34" d="M1174.5,1386.69a5.15,5.15,0,0,0-4.8-3.85l-61.8.13a3.75,3.75,0,0,0-3.76,4l.37,7.62a4.19,4.19,0,0,0,4.15,3.93l64.46-.13c2.17,0,3.64-2.78,3.17-4.9Z"/><path class="cls-35" d="M504.37,1387.05c1.5-1.57,1.33-4.9-.84-4.9l-75.06,2.21a14.68,14.68,0,0,0-7.18,2.27l-15.77,8.95c-1.78,1.24-1.46,4.33.71,4.33l82-.17a10.63,10.63,0,0,0,6.68-2.86Z"/><path class="cls-36" d="M598.52,1387.1c1.34-1.7,1-5.14-1.13-5.14l-59,2.17a10.71,10.71,0,0,0-6.68,2.86l-9.41,7.76c-1.5,1.57-1,4.92,1.22,4.92l61.18-.13a9.24,9.24,0,0,0,6.39-3.1Z"/><path class="cls-37" d="M1079.86,1375.13a3.74,3.74,0,0,0,3.75-4l-.5-10.32a4.21,4.21,0,0,0-4.14-4l-53.12-.22a4.44,4.44,0,0,0-4.34,3.91l-1.08,10.73a3.51,3.51,0,0,0,3.56,3.92Z"/><path class="cls-38" d="M1560.73,1394.5a9.54,9.54,0,0,0,6.46,3l52-.11a2.33,2.33,0,0,0,1.53-4.1l-12.29-8.78a12.12,12.12,0,0,0-6.92-2.59l-47.8-1.69c-2.17,0-2.1,3.16-.72,4.84Z"/><path class="cls-39" d="M892.73,1387.22c.56-2.1.24-5.26-1.93-5.26l-72.17,1.6a6.68,6.68,0,0,0-5.57,3.6l-4,7.19c-.89,2,.42,4.73,2.59,4.73l74-.15a5.48,5.48,0,0,0,5-3.82Z"/><path class="cls-40" d="M999,1387.12a3.49,3.49,0,0,0-3.55-3.92l-77.3.16a5.45,5.45,0,0,0-5,3.82l-2.25,6.87c-.56,2.1.87,4.83,3,4.82l79.93-.16a4.49,4.49,0,0,0,4.34-3.94Z"/><path class="cls-41" d="M1084.38,1387a4.2,4.2,0,0,0-4.14-3.94l-57,.12a4.48,4.48,0,0,0-4.34,3.94l-.77,7.65a3.51,3.51,0,0,0,3.56,3.92l59.34-.12a3.73,3.73,0,0,0,3.76-4Z"/><path class="cls-42" d="M791.36,1387.21c.9-2,.68-5.25-1.49-5.25l-60.51,1.78a7.84,7.84,0,0,0-6,3.39l-5.45,7.5c-1.13,1.86-.1,4.64,2.07,4.64l62-.13a6.68,6.68,0,0,0,5.57-3.6Z"/><path class="cls-43" d="M1259.29,1386.37a6,6,0,0,0-5.29-3.7l-57.4-1c-2.17,0-2.36,2.82-1.89,4.94l1.72,7.79a5.11,5.11,0,0,0,4.8,3.84l58.38-.12c2.17,0,3.52-3.07,2.78-5.12Z"/><path class="cls-44" d="M700.29,1387.18c1.12-1.86.77-5.22-1.4-5.22l-68.77,2a9.29,9.29,0,0,0-6.39,3.11l-7.39,7.26c-1.34,1.7-.67,5.17,1.5,5.17l71.17-.15a7.77,7.77,0,0,0,6-3.39Z"/><path class="cls-45" d="M1109,1406.37a3.75,3.75,0,0,0-3.76,4l.55,11.3a4.17,4.17,0,0,0,4.14,3.92l69.07-.39c2.17,0,3.66-2.88,3.19-5l-2.57-10.07a5.13,5.13,0,0,0-4.8-3.85Z"/><path class="cls-46" d="M1020.86,1406.55a4.47,4.47,0,0,0-4.34,3.94l-1.17,11.65a3.5,3.5,0,0,0,3.56,3.91l63.4-.36a3.75,3.75,0,0,0,3.76-4l-.55-11.37a4.18,4.18,0,0,0-4.14-3.93Z"/><path class="cls-47" d="M1201.84,1404.73c-2.17,0-2.44,3.19-2,5.31l2.46,11.12a5.12,5.12,0,0,0,4.8,3.84l62.06-.35c2.17,0,3.53-3,2.79-5.08l-4.22-9.81a6,6,0,0,0-5.3-3.7Z"/><path class="cls-48" d="M996.25,1375.3a4.49,4.49,0,0,0,4.34-3.94l1.08-10.85a3.53,3.53,0,0,0-3.55-4l-72.64-.3a5.44,5.44,0,0,0-5,3.8l-3.26,10.54c-.56,2.1.88,4.86,3,4.85Z"/><path class="cls-49" d="M1379.83,1404.34c-2.17,0-2.34,3.06-1.34,5l5.78,11.16A7.12,7.12,0,0,0,1390,1424l61.07-.34c2.17,0,3.19-3.2,2-5l-7.67-9.64a8.22,8.22,0,0,0-6.12-3.29Z"/><path class="cls-50" d="M1470.1,1403.62c-2.17,0-2.26,3.5-1.06,5.32l7.4,11.25a8.13,8.13,0,0,0,6.11,3.27l72.2-.4c2.17,0,3-3.19,1.64-4.87l-9.68-9.67a9.49,9.49,0,0,0-6.46-3Z"/><path class="cls-51" d="M1636.39,1410.34c-1.27.44-6.05-5-8.22-5l-55.07-1.9c-2.17,0-2.21,3.39-.83,5.06l9.4,11.38a9.39,9.39,0,0,0,6.46,3l38.44-.21a12.79,12.79,0,0,0,5.71-1.72,4,4,0,0,0,1.71-2.1l2.4-6.43C1636.06,1410.27,1636.55,1410.28,1636.39,1410.34Z"/><path class="cls-52" d="M1290.75,1404c-2.17,0-2.75,3.7-2,5.74l4,11.08a6,6,0,0,0,5.29,3.69l61.93-.34c2.17,0,3.31-3.28,2.31-5.21l-6-9.57a7.12,7.12,0,0,0-5.76-3.49Z"/><path class="cls-53" d="M792.62,1375.72a6.72,6.72,0,0,0,5.58-3.61l5.77-12.75c.9-2,.57-5.56-1.6-5.56l-56,1.72a7.73,7.73,0,0,0-6,3.37l-8.53,12.18c-1.12,1.86.07,4.77,2.24,4.76Z"/><path class="cls-54" d="M703.15,1375.9a7.82,7.82,0,0,0,6-3.39l8.28-13.72c1.13-1.86,1.08-5-1.09-5l-63.41,1.34a9.18,9.18,0,0,0-6.4,3.08l-11.92,13c-1.34,1.71-.39,4.77,1.78,4.76Z"/><path class="cls-55" d="M603.27,1376.1a9.28,9.28,0,0,0,6.4-3.1l11.77-14.89c1.34-1.7,1.39-5-.78-5l-54.11,1.72a10.56,10.56,0,0,0-6.68,2.84l-15.4,14.06c-1.5,1.57-.64,4.54,1.54,4.54Z"/><path class="cls-56" d="M715.22,1407.16a7.83,7.83,0,0,0-6,3.4l-8.39,13.89c-1.12,1.86-.26,3.37,1.91,3.36l328.14-1.7a6.75,6.75,0,0,0,5.58-3.62l6-13.19c.89-2-.15-3.59-2.32-3.58Z"/><path class="cls-57" d="M891.94,1375.51a5.45,5.45,0,0,0,5-3.82l3.17-11.72c.56-2.09.21-5.15-2-5.16l-66.94,1.06a6.65,6.65,0,0,0-5.58,3.58l-5.93,11.18c-.9,2,.37,5,2.54,5Z"/><path class="cls-58" d="M510.73,1376.29a10.63,10.63,0,0,0,6.68-2.86l15.24-15.93c1.5-1.57,1.5-4.79-.67-4.8l-47.83,1.74a60.58,60.58,0,0,0-7.85.58L460.49,1360a60,60,0,0,0-6.78,4l-15.15,8.56a2.14,2.14,0,0,0,1.24,3.92Z"/><path class="cls-59" d="M611.59,1407.39a9.28,9.28,0,0,0-6.4,3.1l-11.74,14.85c-1.34,1.7-.67,3.08,1.5,3.07l76.76-.43a7.82,7.82,0,0,0,6-3.4l8.44-14c1.12-1.86,1-4.89-1.15-4.89Z"/><path class="cls-60" d="M516,1407.58a10.66,10.66,0,0,0-6.68,2.86l-15,15.69c-1.51,1.57-1,2.85,1.21,2.84l66.28-.37a9.35,9.35,0,0,0,6.39-3.12L580,1410.54c1.35-1.7.67-3.09-1.5-3.09Z"/><path class="cls-61" d="M394.89,1407.83a14.64,14.64,0,0,0-7.17,2.27l-6.44,4.52c-1.5,1.05-1,1.77-1.15,3.23a5.47,5.47,0,0,0,.23,2.05l1.22,3.86a8.08,8.08,0,0,0,5.49,5.44,9.25,9.25,0,0,0,2.39.36l70.67-.4a10.67,10.67,0,0,0,6.68-2.87l15.12-15.79c1.5-1.57,1.47-4.89-.7-4.89Z"/><path class="cls-62" d="M1592.49,1372a15.68,15.68,0,0,0,3.72-.2c-.12-.1-1.74-1.1-3.61-2.21l-31.91-12.07a51.49,51.49,0,0,0-7.83-.74l-17.69-.08c-2.18,0-2.82,1.36-1.44,3l7.71,9.33a9.54,9.54,0,0,0,6.46,3Z"/><path class="cls-63" d="M1527.41,1383.08a9.49,9.49,0,0,0-6.46-3l-65.51.13c-2.17,0-3,1.49-1.78,3.31l5.85,8.89a8.19,8.19,0,0,0,6.12,3.29l68.11-.14c2.17,0,2.81-1.38,1.43-3.06Z"/><path class="cls-64" d="M1514.44,1372.16c2.17,0,2.82-1.37,1.43-3.05l-7.83-9.49a9.61,9.61,0,0,0-6.46-3.06l-61.86-.25c-2.17,0-3,1.47-1.78,3.28l6.19,9.41a8.16,8.16,0,0,0,6.12,3.29Z"/><path class="cls-65" d="M1344.18,1383.92a7.14,7.14,0,0,0-5.77-3.5l-55.53.11a2.6,2.6,0,0,0-2.61,3.72l2.92,8.07a6,6,0,0,0,5.29,3.71l58-.12c2.18,0,3.14-1.59,2.14-3.51Z"/><path class="cls-66" d="M1430.06,1383.54a8.14,8.14,0,0,0-6.12-3.29l-55.42.11c-2.17,0-3.13,1.58-2.14,3.51l4.39,8.48a7.15,7.15,0,0,0,5.77,3.5l57.59-.12c2.17,0,3-1.49,1.78-3.31Z"/><path class="cls-67" d="M1168,1372.87a3,3,0,0,0,3.1-3.86l-2.2-10a5.18,5.18,0,0,0-4.8-3.87l-57.41-.24a3.72,3.72,0,0,0-3.76,3.93l.5,10.2a4.17,4.17,0,0,0,4.14,3.93Z"/><path class="cls-68" d="M1251.14,1372.7a2.6,2.6,0,0,0,2.61-3.72l-3.53-9.75a6.09,6.09,0,0,0-5.29-3.73l-52.75-.21a3,3,0,0,0-3.09,3.84l2.17,9.84a5.13,5.13,0,0,0,4.8,3.84Z"/><path class="cls-69" d="M1334.33,1372.53c2.17,0,3.13-1.58,2.13-3.51l-5-9.66a7.18,7.18,0,0,0-5.76-3.52l-51.85-.22a2.58,2.58,0,0,0-2.6,3.7l3.48,9.62a6,6,0,0,0,5.29,3.7Z"/><path class="cls-70" d="M1418.75,1372.36c2.18,0,3-1.49,1.78-3.31l-6.29-9.56a8.24,8.24,0,0,0-6.11-3.31l-52.26-.22c-2.17,0-3.13,1.56-2.13,3.49l4.93,9.52a7.13,7.13,0,0,0,5.76,3.5Z"/><path class="cls-71" d="M1174.5,1384.61a5.15,5.15,0,0,0-4.8-3.85l-61.8.13a3.75,3.75,0,0,0-3.76,3.95l.37,7.62a4.2,4.2,0,0,0,4.15,3.94l64.46-.14a3,3,0,0,0,3.1-3.86Z"/><path class="cls-72" d="M504.37,1385c1.5-1.57,1-2.85-1.22-2.84l-74.68.15a14.78,14.78,0,0,0-7.18,2.27l-15.77,11c-1.78,1.24-1.46,2.26.71,2.25l82-.17a10.63,10.63,0,0,0,6.68-2.86Z"/><path class="cls-73" d="M598.52,1385c1.34-1.7.67-3.09-1.5-3.08l-58.59.11a10.72,10.72,0,0,0-6.68,2.87l-9.41,9.83c-1.5,1.57-1,2.85,1.22,2.84l61.18-.12a9.25,9.25,0,0,0,6.39-3.11Z"/><path class="cls-74" d="M1079.86,1373.05a3.73,3.73,0,0,0,3.75-4l-.5-10.32a4.22,4.22,0,0,0-4.14-4l-53.12-.22a4.44,4.44,0,0,0-4.34,3.91l-1.08,10.73a3.51,3.51,0,0,0,3.56,3.93Z"/><path class="cls-75" d="M1560.73,1392.42a9.5,9.5,0,0,0,6.46,3l52-.11c2.17,0,2.61-1.18,1-2.61l-11.74-10.27a12.19,12.19,0,0,0-6.92-2.59l-47.08.1c-2.17,0-2.82,1.38-1.44,3Z"/><path class="cls-76" d="M892.73,1385.14a2.87,2.87,0,0,0-2.92-3.8l-71.18.14a6.69,6.69,0,0,0-5.57,3.61l-3.77,8.32c-.9,2,.14,3.6,2.31,3.59l74-.15a5.47,5.47,0,0,0,5-3.82Z"/><path class="cls-77" d="M999,1385a3.5,3.5,0,0,0-3.55-3.92l-77.3.16a5.45,5.45,0,0,0-5,3.82l-2.13,7.89a2.86,2.86,0,0,0,2.92,3.8l79.93-.16a4.48,4.48,0,0,0,4.34-3.94Z"/><path class="cls-78" d="M1084.38,1384.88a4.18,4.18,0,0,0-4.14-3.93l-57,.11a4.48,4.48,0,0,0-4.34,3.94l-.77,7.65a3.51,3.51,0,0,0,3.56,3.92l59.34-.12a3.73,3.73,0,0,0,3.76-4Z"/><path class="cls-79" d="M791.36,1385.13c.9-2-.14-3.59-2.32-3.59l-59.68.12a7.84,7.84,0,0,0-6,3.39l-5.29,8.77c-1.12,1.86-.26,3.37,1.91,3.37l62-.13a6.66,6.66,0,0,0,5.57-3.6Z"/><path class="cls-80" d="M1259.29,1384.3a6.05,6.05,0,0,0-5.29-3.71l-56.2.12a3,3,0,0,0-3.09,3.86l1.72,7.79a5.13,5.13,0,0,0,4.8,3.85l58.38-.12a2.6,2.6,0,0,0,2.6-3.72Z"/><path class="cls-81" d="M700.29,1385.1c1.12-1.86.26-3.38-1.91-3.37l-68.26.14a9.24,9.24,0,0,0-6.39,3.1l-7.39,9.34c-1.34,1.7-.67,3.09,1.5,3.09l71.17-.15a7.79,7.79,0,0,0,6-3.38Z"/><path class="cls-82" d="M1109,1404.29a3.75,3.75,0,0,0-3.76,4l.55,11.3a4.17,4.17,0,0,0,4.14,3.92l69.07-.38a3.07,3.07,0,0,0,3.1-3.88l-2.48-11.19a5.11,5.11,0,0,0-4.8-3.85Z"/><path class="cls-83" d="M1203,1404.1a3,3,0,0,0-3.1,3.86l2.46,11.13a5.12,5.12,0,0,0,4.8,3.83l62.06-.34a2.62,2.62,0,0,0,2.6-3.74l-4-11.16a6,6,0,0,0-5.3-3.7Z"/><path class="cls-84" d="M996.25,1373.22a4.47,4.47,0,0,0,4.34-3.93l1.08-10.86a3.53,3.53,0,0,0-3.55-4l-72.64-.3a5.45,5.45,0,0,0-5,3.8l-3.13,11.59a2.88,2.88,0,0,0,2.92,3.81Z"/><path class="cls-85" d="M1380.62,1403.74c-2.17,0-3.13,1.58-2.13,3.51l5.78,11.17a7.11,7.11,0,0,0,5.77,3.48l61.07-.34c2.17,0,3-1.51,1.78-3.32l-7.45-11.33a8.16,8.16,0,0,0-6.12-3.29Z"/><path class="cls-86" d="M1470.81,1403.55c-2.17,0-3,1.5-1.77,3.31l7.4,11.25a8.14,8.14,0,0,0,6.11,3.28l72.2-.41c2.17,0,2.81-1.39,1.43-3.06l-9.47-11.47a9.5,9.5,0,0,0-6.46-3Z"/><path class="cls-87" d="M1634,1404.83c-1-.88-3.61-1.6-5.78-1.6l-54.47.11c-2.17,0-2.81,1.38-1.43,3.06l9.4,11.37a9.45,9.45,0,0,0,6.46,3l38.44-.22a12.63,12.63,0,0,0,5.23-1.45,4.81,4.81,0,0,0,2.28-2.6l2.31-6.19C1636.06,1408.19,1635,1405.71,1634,1404.83Z"/><path class="cls-88" d="M808,1404.91a6.66,6.66,0,0,0-5.58,3.6l-5.94,13.11c-.89,2,.15,3.59,2.32,3.58l79.27-.44a5.52,5.52,0,0,0,5-3.84l3.33-12.36a2.87,2.87,0,0,0-2.92-3.81Z"/><path class="cls-89" d="M1291.34,1403.92a2.6,2.6,0,0,0-2.6,3.72l4,11.08a6,6,0,0,0,5.29,3.69l61.93-.34c2.17,0,3.13-1.6,2.14-3.53l-5.83-11.24a7.11,7.11,0,0,0-5.76-3.5Z"/><path class="cls-90" d="M792.62,1373.64a6.72,6.72,0,0,0,5.58-3.61l5.77-12.74c.9-2-.15-3.61-2.32-3.62l-55.23-.22a7.72,7.72,0,0,0-6,3.36l-8.2,13.58c-1.12,1.86-.26,3.37,1.91,3.37Z"/><path class="cls-91" d="M703.15,1373.82a7.79,7.79,0,0,0,6-3.39l8.28-13.72c1.13-1.85.27-3.38-1.9-3.39l-62.6-.26a9.22,9.22,0,0,0-6.4,3.08l-11.64,14.73c-1.35,1.7-.67,3.09,1.5,3.09Z"/><path class="cls-92" d="M603.27,1374a9.34,9.34,0,0,0,6.4-3.11L621.44,1356c1.34-1.71.67-3.11-1.5-3.12l-53.39-.22a10.56,10.56,0,0,0-6.68,2.84l-15.08,15.76c-1.5,1.57-1,2.85,1.22,2.84Z"/><path class="cls-93" d="M1086.07,1419.65l-.55-11.37a4.19,4.19,0,0,0-4.14-3.93l-60.52.12a4,4,0,0,0-1,.15l-304.61.48a7.79,7.79,0,0,0-6,3.39l-8.39,13.88c-1.12,1.86-.26,3.37,1.91,3.36l378.1-1.6a7.25,7.25,0,0,0,2-.57A3.73,3.73,0,0,0,1086.07,1419.65Z"/><path class="cls-94" d="M891.94,1373.44a5.47,5.47,0,0,0,5-3.82l3.17-11.72a2.89,2.89,0,0,0-2.92-3.83l-66-.27a6.65,6.65,0,0,0-5.58,3.58L819.89,1370c-.89,2,.15,3.59,2.32,3.59Z"/><path class="cls-95" d="M510.73,1374.21a10.63,10.63,0,0,0,6.68-2.86l15.24-15.92c1.5-1.57,1-2.86-1.22-2.87l-47.28-.2a60.58,60.58,0,0,0-7.85.58l-15.81,4.94a63.13,63.13,0,0,0-6.78,4l-14.62,10.22c-1.78,1.25-1.46,2.26.71,2.26Z"/><path class="cls-96" d="M611.59,1405.31a9.28,9.28,0,0,0-6.4,3.1l-11.74,14.85c-1.34,1.7-.67,3.09,1.5,3.07l76.76-.42a7.86,7.86,0,0,0,6-3.41l8.44-14c1.12-1.86.26-3.37-1.91-3.37Z"/><path class="cls-97" d="M516,1405.5a10.72,10.72,0,0,0-6.68,2.86l-15,15.7c-1.51,1.57-1,2.84,1.21,2.83l66.28-.37a9.31,9.31,0,0,0,6.39-3.12L580,1408.47c1.35-1.71.67-3.1-1.5-3.09Z"/><path class="cls-98" d="M394.91,1405.75a14.93,14.93,0,0,0-7.19,2.27l-3.64,2.55a11.89,11.89,0,0,0-3.63,4.73,3.72,3.72,0,0,0-.07,2.59l1.11,3.51a8.59,8.59,0,0,0,6.41,5.92,8,8,0,0,0,1.56.16l70.67-.39a10.74,10.74,0,0,0,6.68-2.88l15.12-15.79c1.5-1.57.95-2.85-1.22-2.84Z"/><circle class="cls-3" cx="1002.3" cy="603.01" r="23.13"/><circle class="cls-3" cx="1011.14" cy="187.08" r="23.13" transform="translate(-17.13 195.11) rotate(-10.93)"/><path class="cls-99" d="M1470.71,1000.79c9.15.79,25,2.07,37.56,2.62,7.53.34,11.86-.4,14.36-1.4,0,.28,0,.55,0,.79a2.59,2.59,0,0,1-2.47,2.45,439.59,439.59,0,0,1-49.18,0,1.84,1.84,0,0,1-1.5-2.77A14,14,0,0,1,1470.71,1000.79Z"/><path class="cls-100" d="M1508.27,1003.41c-12.52-.55-28.41-1.83-37.56-2.62,9-11,37.56-18.49,37.56-18.49h8.07a33.84,33.84,0,0,1,6.29,19.71C1520.13,1003,1515.8,1003.75,1508.27,1003.41Z"/><path class="cls-101" d="M1517.7,969.13l-.76,14.94a3.41,3.41,0,0,1-2.91,3.21,13.3,13.3,0,0,1-6.06-.5,4.05,4.05,0,0,1-2.72-3.1l-2.6-14.55Z"/><path class="cls-102" d="M1622.48,1003.3c4-.55,5.77-2.61,6.52-4.82l0,.06c.58,2.33-.77,4.74-3.48,5.88a22.57,22.57,0,0,1-9.63,1.51,9.55,9.55,0,0,1-7.21-3.33l0,0C1611.66,1004.05,1615.86,1004.23,1622.48,1003.3Z"/><path class="cls-103" d="M1603.77,969h6.65c10.13-.21,16.5,21.17,18.58,29.44-.75,2.21-2.55,4.27-6.52,4.82-6.62.93-10.82.75-13.81-.73-5.47-7.2-8.19-17.75-9.49-23.91A8.4,8.4,0,0,1,1603.77,969Z"/><path class="cls-104" d="M1609.56,955.17l3.7,14.7a4,4,0,0,1-2.08,4.51c-2.06,1.07-5,2.18-7.65,1.86a3.33,3.33,0,0,1-2.71-2.22l-5.43-15.46Z"/><path class="cls-105" d="M1614,959.42c-4.6,4.08-19.55,4.61-19.55,4.61-53.85-129.25-75.88-147.61-75.88-147.61,7.78,48.78,1.25,156.79,1.25,156.79-8.88,3.92-20.34,0-20.34,0A832.62,832.62,0,0,0,1472,768.77c36.4-.81,55.76-13.27,62.08-18.27C1564.37,799.42,1614,959.42,1614,959.42Z"/><path class="cls-106" d="M1524.78,601.86c6.89,34.36,4.42,95.87,2.8,123.92-.46,7.89,5.05,18.82,9.5,26.28a2.33,2.33,0,0,1-.95,3.29c-7.45,3.83-32.68,15.69-61.93,17.17a4.18,4.18,0,0,1-4.2-3.12c-21.69-81-46.89-132.77-46.89-132.77C1450.93,592.21,1524.78,601.86,1524.78,601.86Z"/><path class="cls-107" d="M1514.87,813.36a1.72,1.72,0,0,0,1.47-2.62A54.1,54.1,0,0,0,1495,792.2a1.73,1.73,0,1,0-1.5,3.11,51.48,51.48,0,0,1,19.9,17.22A1.75,1.75,0,0,0,1514.87,813.36Z"/><path class="cls-108" d="M1568,700.48c-2.22,16-8.76,33.48-21.84,52l-5-4a153.61,153.61,0,0,0,2.48-49.72C1551.74,697.16,1561.27,698.78,1568,700.48Z"/><path class="cls-109" d="M1517.09,644.26l7.69-42.4s51.42,39.3,43.22,98.62c-6.73-1.7-16.26-3.32-24.33-1.75C1541.32,679.7,1534.3,659,1517.09,644.26Z"/><path class="cls-110" d="M1423.11,636.63,1443,679.37c-3.21,25.81-17.07,37-32,41.24a90.57,90.57,0,0,0-6.67-27.83C1423.37,673.06,1423.11,636.63,1423.11,636.63Z"/><path class="cls-111" d="M1404.27,692.78a90.57,90.57,0,0,1,6.67,27.83c-39.88,15.48-50.43-14.53-50.43-14.53l7.37-1.3C1384.53,706.53,1396.15,701.17,1404.27,692.78Z"/><path class="cls-112" d="M1441.4,583.87l9.58,35.22a6.85,6.85,0,0,0,9.16,4.56,141.61,141.61,0,0,0,13.81-6.31,9.24,9.24,0,0,0,3.26-13.27l-19.92-29.7Z"/><path class="cls-113" d="M1420.43,557.11c-.08.6,8,40.19,8,40.19l22.5-5.09-2.08-38.66S1421.9,547,1420.43,557.11Z"/><path class="cls-114" d="M1443.79,562.16l2.69,20.27a2.84,2.84,0,0,1,0,.77c-.22,1.59-1.4,7-6.86,5.45-5-1.4-9.5-2.61-12.64-1.65a2.86,2.86,0,0,0-2,3.3,124,124,0,0,0,5.18,18.45,2.85,2.85,0,0,0,3.46,1.68c4.27-1.24,13.2-4.12,19.84-8.12a2.86,2.86,0,0,0,1.39-2.56c-.22-5.12-.82-20.67-.31-25,.47-4.09,5.49-6.54,7.67-7.42a2.82,2.82,0,0,0,1.57-1.57c1-2.53,2.4-8.39-5-10.79a2.86,2.86,0,0,1-1.81-3.7c1.09-3,1.55-7.69-4.16-10.25s-10.14.49-12.48,3a2.86,2.86,0,0,1-3.64.43,2.26,2.26,0,0,0-2.57.09,2.83,2.83,0,0,1-4-1.21c-1.39-2.85-4.22-5.91-9.9-4.94-10.09,1.73-11.23,12.91-8.57,19.45s13.49,4.06,18.92.76c4.13-2.51,9.49.12,11.82,1.52A2.87,2.87,0,0,1,1443.79,562.16Z"/><path class="cls-115" d="M1455.47,582.11s-4.14-11.61.12-14.46,10.57-1.36,9.18,7.05C1463,585.16,1455.47,582.11,1455.47,582.11Z"/><path class="cls-116" d="M1363.47,711.57c-2,1.57-8.88-1.71-13.09-4a4.83,4.83,0,0,1-2.34-5.72c1-3.19,2.7-7.32,4.78-7.83C1356.27,693.18,1371.74,705.11,1363.47,711.57Z"/><path class="cls-117" d="M1702.06,808.55,1177,621.8,1149.17,699l524.93,192a24.47,24.47,0,0,0,29.56-10.7c6.14-10.54,12-27,12.36-51.66A21,21,0,0,0,1702.06,808.55Z"/><path class="cls-118" d="M1014.49,601.85l72.54,8.91c-.08,10-3.35,22.9-14.41,37.71l-60.58-40A3.65,3.65,0,0,1,1014.49,601.85Z"/><path class="cls-119" d="M1177,621.8c3.32,48.36-27.78,77.17-27.78,77.17l-76.55-50.5c11.06-14.81,14.33-27.73,14.41-37.71Z"/><path class="cls-6" d="M1695.55,832.22a1.54,1.54,0,0,0,.51-3L1193.67,651.67a1.54,1.54,0,1,0-1,2.91L1695,832.13A1.58,1.58,0,0,0,1695.55,832.22Z"/><path class="cls-6" d="M1686.88,862.5a1.54,1.54,0,0,0,.51-3L1185,682a1.53,1.53,0,0,0-2,.94,1.55,1.55,0,0,0,.94,2l502.39,177.55A1.63,1.63,0,0,0,1686.88,862.5Z"/><path class="cls-120" d="M1543.24,747.74,1520,745.85l-10,9.27s2.38,3.28,9.82,1.4a106.66,106.66,0,0,1,17.61-2.36s10.27,4.63,10.39-4Z"/><path class="cls-3" d="M995.78,608.8h-10a2,2,0,0,1,0-4h10a2,2,0,0,1,0,4Zm-20,0h-10a2,2,0,0,1,0-4h10a2,2,0,0,1,0,4Zm-20,0h-10a2,2,0,0,1,0-4h10a2,2,0,0,1,0,4Zm-20,0h-10a2,2,0,0,1,0-4h10a2,2,0,0,1,0,4Zm-20,0h-10a2,2,0,0,1,0-4h10a2,2,0,0,1,0,4Zm-20,0h-10a2,2,0,0,1,0-4h10a2,2,0,0,1,0,4Zm-20,0h-10a2,2,0,0,1,0-4h10a2,2,0,0,1,0,4Zm-20,0h-10a2,2,0,0,1,0-4h10a2,2,0,0,1,0,4Zm-20,0h-10a2,2,0,0,1,0-4h10a2,2,0,0,1,0,4Zm-20,0h-10a2,2,0,0,1,0-4h10a2,2,0,0,1,0,4Zm-20,0h-10a2,2,0,0,1,0-4h10a2,2,0,0,1,0,4Zm-20,0h-10a2,2,0,0,1,0-4h10a2,2,0,0,1,0,4Zm-20,0h-10a2,2,0,0,1,0-4h10a2,2,0,0,1,0,4Zm-20,0h-10a2,2,0,0,1,0-4h10a2,2,0,0,1,0,4Zm-20,0h-10a2,2,0,0,1,0-4h10a2,2,0,0,1,0,4Zm-20,0h-10a2,2,0,0,1,0-4h10a2,2,0,0,1,0,4Zm-20,0h-10a2,2,0,0,1,0-4h10a2,2,0,0,1,0,4Zm-20,0h-10a2,2,0,0,1,0-4h10a2,2,0,0,1,0,4Zm-20,0h-10a2,2,0,0,1,0-4h10a2,2,0,0,1,0,4Zm-20,0h-10a2,2,0,0,1,0-4h10a2,2,0,0,1,0,4Zm-20,0h-10a2,2,0,0,1,0-4h10a2,2,0,0,1,0,4Zm406.58-3.48h0a2,2,0,0,1-2-2l.19-10a2,2,0,0,1,2-2h0a2,2,0,0,1,2,2l-.19,10A2,2,0,0,1,1002.36,605.32Zm.39-20h0a2,2,0,0,1-2-2l.19-10a2,2,0,0,1,2-2h0a2,2,0,0,1,2,2l-.19,10A2,2,0,0,1,1002.75,585.33Zm.38-20h0a2,2,0,0,1-2-2l.19-10a2,2,0,0,1,4,.08l-.19,10A2,2,0,0,1,1003.13,565.33Zm.39-20h0a2,2,0,0,1-2-2l.2-10a2,2,0,0,1,4,.07l-.2,10A2,2,0,0,1,1003.52,545.33Zm.38-20h0a2,2,0,0,1-2-2l.19-10a2,2,0,0,1,2-2h0a2,2,0,0,1,2,2l-.19,10A2,2,0,0,1,1003.9,525.34Zm849.49-7.17a2,2,0,0,1-2-2l-.08-10a2,2,0,0,1,2-2h0a2,2,0,0,1,2,2l.08,10a2,2,0,0,1-2,2Zm-849.11-12.83h0a2,2,0,0,1-2-2l.19-10a2,2,0,0,1,2-2,2,2,0,0,1,2,2l-.19,10A2,2,0,0,1,1004.28,505.34Zm849-7.17a2,2,0,0,1-2-2l-.08-10a2,2,0,0,1,4,0l.08,10a2,2,0,0,1-2,2Zm-848.57-12.83h0a2,2,0,0,1-2-2l.19-10a2,2,0,0,1,2-2h0a2,2,0,0,1,2,2l-.19,10A2,2,0,0,1,1004.67,485.34Zm848.42-7.17a2,2,0,0,1-2-2l-.08-10a2,2,0,0,1,2-2h0a2,2,0,0,1,2,2l.08,10a2,2,0,0,1-2,2Zm-848-12.82h0a2,2,0,0,1-2-2l.19-10a2,2,0,0,1,2-2h0a2,2,0,0,1,2,2l-.19,10A2,2,0,0,1,1005.05,465.35Zm847.89-7.18a2,2,0,0,1-2-2l-.08-10a2,2,0,0,1,2-2h0a2,2,0,0,1,2,2l.08,10a2,2,0,0,1-2,2Zm-847.51-12.82h0a2,2,0,0,1-2-2l.2-10a2,2,0,0,1,2-2h0a2,2,0,0,1,2,2l-.2,10A2,2,0,0,1,1005.43,445.35Zm847.36-7.18a2,2,0,0,1-2-2l-.08-10a2,2,0,0,1,4,0l.08,10a2,2,0,0,1-2,2Zm-847-12.81h0a2,2,0,0,1-2-2l.19-10a2,2,0,1,1,4,.08l-.19,10A2,2,0,0,1,1005.82,425.36Zm846.81-7.19a2,2,0,0,1-2-2l-.07-10a2,2,0,0,1,2-2h0a2,2,0,0,1,2,2l.07,10a2,2,0,0,1-2,2ZM1006.2,405.36h0a2,2,0,0,1-2-2l.19-10a2,2,0,1,1,4,.08l-.19,10A2,2,0,0,1,1006.2,405.36Zm846.28-7.19a2,2,0,0,1-2-2l-.07-10a2,2,0,0,1,2-2h0a2,2,0,0,1,2,2l.07,10a2,2,0,0,1-2,2Zm-845.89-12.81h0a2,2,0,0,1-2-2l.19-10a2,2,0,0,1,2-2h0a2,2,0,0,1,2,2l-.19,10A2,2,0,0,1,1006.59,385.36Zm845.74-7.19a2,2,0,0,1-2-2l-.07-10a2,2,0,0,1,2-2h0a2,2,0,0,1,2,2l.07,10a2,2,0,0,1-2,2ZM1007,365.37h0a2,2,0,0,1-2-2l.19-10a2,2,0,0,1,2-2h0a2,2,0,0,1,2,2l-.19,10A2,2,0,0,1,1007,365.37Zm845.21-7.2a2,2,0,0,1-2-2l-.07-10a2,2,0,0,1,2-2h0a2,2,0,0,1,2,2l.07,10a2,2,0,0,1-2,2Zm-844.83-12.8h0a2,2,0,0,1-2-2l.19-10a2,2,0,0,1,2-2,2,2,0,0,1,2,2l-.19,10A2,2,0,0,1,1007.35,345.37Zm844.68-7.2a2,2,0,0,1-2-2l-.07-10a2,2,0,0,1,2-2h0a2,2,0,0,1,2,2l.07,10a2,2,0,0,1-2,2Zm-844.29-12.8h0a2,2,0,0,1-2-2l.19-10a2,2,0,0,1,2-2h0a2,2,0,0,1,2,2l-.19,10A2,2,0,0,1,1007.74,325.37Zm844.14-7.2a2,2,0,0,1-2-2l-.08-10a2,2,0,0,1,2-2,2,2,0,0,1,2,2l.08,10a2,2,0,0,1-2,2Zm-843.76-12.79h0a2,2,0,0,1-2-2l.19-10a2,2,0,0,1,2-2h0a2,2,0,0,1,2,2l-.19,10A2,2,0,0,1,1008.12,305.38Zm843.61-7.21a2,2,0,0,1-2-2l-.08-10a2,2,0,0,1,2-2h0a2,2,0,0,1,2,2l.08,10a2,2,0,0,1-2,2Zm-843.22-12.79h0a2,2,0,0,1-2-2l.2-10a2,2,0,0,1,2-2h0a2,2,0,0,1,2,2l-.2,10A2,2,0,0,1,1008.51,285.38Zm843.07-7.21a2,2,0,0,1-2-2l-.08-10a2,2,0,0,1,2-2h0a2,2,0,0,1,2,2l.08,10a2,2,0,0,1-2,2Zm-842.69-12.79h0a2,2,0,0,1-2-2l.19-10a2,2,0,0,1,2-2h0a2,2,0,0,1,2,2l-.19,10A2,2,0,0,1,1008.89,265.38Zm842.54-7.21a2,2,0,0,1-2-2l-.08-10a2,2,0,0,1,2-2h0a2,2,0,0,1,2,2l.08,10a2,2,0,0,1-2,2Zm-842.16-12.78h0a2,2,0,0,1-2-2l.19-10a2,2,0,0,1,2-2h0a2,2,0,0,1,2,2l-.19,10A2,2,0,0,1,1009.27,245.39Zm842-7.22a2,2,0,0,1-2-2l-.08-10a2,2,0,0,1,2-2,2,2,0,0,1,2,2l.08,10a2,2,0,0,1-2,2Zm-841.62-12.78h0a2,2,0,0,1-2-2l.19-10a2,2,0,1,1,4,.07l-.19,10A2,2,0,0,1,1009.66,225.39Zm841.47-7.22a2,2,0,0,1-2-2l-.08-10a2,2,0,0,1,2-2h0a2,2,0,0,1,2,2l.08,10a2,2,0,0,1-2,2ZM1010,205.4h0a2,2,0,0,1-2-2l.19-10a2,2,0,0,1,2-2h0a2,2,0,0,1,2,2l-.19,10A2,2,0,0,1,1010,205.4ZM1851,198.17a2,2,0,0,1-2-2l-.07-10a2,2,0,0,1,2-2h0a2,2,0,0,1,2,2l.07,10a2,2,0,0,1-2,2ZM1842,187h-10a2,2,0,0,1,0-4h10a2,2,0,0,1,0,4Zm-20,0h-10a2,2,0,0,1,0-4h10a2,2,0,0,1,0,4Zm-20,0h-10a2,2,0,0,1,0-4h10a2,2,0,0,1,0,4Zm-20,0h-10a2,2,0,0,1,0-4h10a2,2,0,0,1,0,4Zm-20,0h-10a2,2,0,0,1,0-4h10a2,2,0,0,1,0,4Zm-20,0h-10a2,2,0,0,1,0-4h10a2,2,0,0,1,0,4Zm-20,0h-10a2,2,0,0,1,0-4h10a2,2,0,0,1,0,4Zm-20,0h-10a2,2,0,0,1,0-4h10a2,2,0,0,1,0,4Zm-20,0h-10a2,2,0,0,1,0-4h10a2,2,0,0,1,0,4Zm-20,0h-10a2,2,0,0,1,0-4h10a2,2,0,0,1,0,4Zm-20,0h-10a2,2,0,0,1,0-4h10a2,2,0,0,1,0,4Zm-20,0h-10a2,2,0,0,1,0-4h10a2,2,0,0,1,0,4Zm-20,0h-10a2,2,0,0,1,0-4h10a2,2,0,0,1,0,4Zm-20,0h-10a2,2,0,0,1,0-4h10a2,2,0,0,1,0,4Zm-20,0h-10a2,2,0,0,1,0-4h10a2,2,0,0,1,0,4Zm-20,0h-10a2,2,0,0,1,0-4h10a2,2,0,0,1,0,4Zm-20,0h-10a2,2,0,0,1,0-4h10a2,2,0,0,1,0,4Zm-20,0h-10a2,2,0,0,1,0-4h10a2,2,0,0,1,0,4Zm-20,0h-10a2,2,0,0,1,0-4h10a2,2,0,0,1,0,4Zm-20,0h-10a2,2,0,0,1,0-4h10a2,2,0,0,1,0,4Zm-20,0h-10a2,2,0,0,1,0-4h10a2,2,0,0,1,0,4Zm-20,0h-10a2,2,0,0,1,0-4h10a2,2,0,0,1,0,4Zm-20,0h-10a2,2,0,0,1,0-4h10a2,2,0,0,1,0,4Zm-20,0h-10a2,2,0,0,1,0-4h10a2,2,0,0,1,0,4Zm-20,0h-10a2,2,0,0,1,0-4h10a2,2,0,0,1,0,4Zm-20,0h-10a2,2,0,0,1,0-4h10a2,2,0,0,1,0,4Zm-20,0h-10a2,2,0,0,1,0-4h10a2,2,0,0,1,0,4Zm-20,0h-10a2,2,0,0,1,0-4h10a2,2,0,0,1,0,4Zm-20,0h-10a2,2,0,0,1,0-4h10a2,2,0,0,1,0,4Zm-20,0h-10a2,2,0,0,1,0-4h10a2,2,0,0,1,0,4Zm-20,0h-10a2,2,0,0,1,0-4h10a2,2,0,0,1,0,4Zm-20,0h-10a2,2,0,0,1,0-4h10a2,2,0,0,1,0,4Zm-20,0h-10a2,2,0,0,1,0-4h10a2,2,0,0,1,0,4Zm-20,0h-10a2,2,0,0,1,0-4h10a2,2,0,0,1,0,4Zm-20,0h-10a2,2,0,0,1,0-4h10a2,2,0,0,1,0,4Zm-20,0h-10a2,2,0,0,1,0-4h10a2,2,0,0,1,0,4Zm-20,0h-10a2,2,0,0,1,0-4h10a2,2,0,0,1,0,4Zm-20,0h-10a2,2,0,0,1,0-4h10a2,2,0,0,1,0,4Zm-20,0h-10a2,2,0,0,1,0-4h10a2,2,0,0,1,0,4Zm-20,0h-10a2,2,0,0,1,0-4h10a2,2,0,0,1,0,4Zm-20,0h-10a2,2,0,0,1,0-4h10a2,2,0,0,1,0,4Zm-20,0h-10a2,2,0,0,1,0-4h10a2,2,0,0,1,0,4Z"/><path class="cls-3" d="M573.05,573.52H461.38A11.81,11.81,0,0,1,449.58,562l-10.07-490a11.81,11.81,0,0,1,12.66-12L573.9,68.7a11.8,11.8,0,0,1,11,11.78V561.71A11.81,11.81,0,0,1,573.05,573.52Z"/><path class="cls-2" d="M467,259.65l2.42,58a10.3,10.3,0,0,0,10.15,9.87l78,1.09A10.3,10.3,0,0,0,568,318.35v-58A10.31,10.31,0,0,0,557.81,250l-80.41-1.12A10.29,10.29,0,0,0,467,259.65Z"/><path class="cls-121" d="M557.81,337.48l-76.76-1.07a10.29,10.29,0,0,0-10.44,10.73l2.42,58a10.3,10.3,0,0,0,10.15,9.87l74.34,1A10.31,10.31,0,0,0,568,405.79v-58A10.31,10.31,0,0,0,557.81,337.48Z"/><path class="cls-6" d="M568,143.47V99.79a10.29,10.29,0,0,0-9-10.21L471.46,78.2a10.29,10.29,0,0,0-11.62,10.64l2.24,53.87a10.3,10.3,0,0,0,10.15,9.87l85.29,1.2A10.31,10.31,0,0,0,568,143.47Z"/><path class="cls-5" d="M463.31,172.16l2.42,58a10.3,10.3,0,0,0,10.15,9.87l81.64,1.14A10.3,10.3,0,0,0,568,230.91v-58a10.3,10.3,0,0,0-10.16-10.31l-84.06-1.17A10.3,10.3,0,0,0,463.31,172.16Z"/><path class="cls-122" d="M474.26,434.63,476,476.86a10.3,10.3,0,0,0,10.29,9.87h71.36a10.3,10.3,0,0,0,10.3-10.3V435.22a10.31,10.31,0,0,0-10.16-10.3l-73.12-1A10.29,10.29,0,0,0,474.26,434.63Z"/><path class="cls-3" d="M581.25,567.06,477.08,607.3a11.81,11.81,0,0,1-15.18-6.53l-186-453.46a11.8,11.8,0,0,1,7.47-15.77L400.11,95.86a11.82,11.82,0,0,1,14.47,7L588,551.78A11.82,11.82,0,0,1,581.25,567.06Z"/><g class="cls-123"><path class="cls-124" d="M369.17,312.52l23.17,53.26a10.31,10.31,0,0,0,13,5.56l73.14-27.1a10.29,10.29,0,0,0,6-13.37l-20.9-54.11a10.32,10.32,0,0,0-13.19-5.95L375,298.75A10.3,10.3,0,0,0,369.17,312.52Z"/><path class="cls-125" d="M482,352.38,410,379a10.3,10.3,0,0,0-5.87,13.77l23.18,53.27a10.3,10.3,0,0,0,13,5.55L510,425.81a10.32,10.32,0,0,0,6-13.38l-20.91-54.11A10.3,10.3,0,0,0,482,352.38Z"/><path class="cls-126" d="M421.52,167.75,405.78,127a10.3,10.3,0,0,0-12-6.29L308,141.64a10.3,10.3,0,0,0-7,14.12l21.5,49.43a10.3,10.3,0,0,0,13,5.55l80-29.62A10.3,10.3,0,0,0,421.52,167.75Z"/><path class="cls-127" d="M334.23,232.22l23.18,53.27a10.3,10.3,0,0,0,13,5.55L447,262.68a10.29,10.29,0,0,0,6-13.37l-20.9-54.11a10.31,10.31,0,0,0-13.19-5.95l-78.84,29.2A10.3,10.3,0,0,0,334.23,232.22Z"/><path class="cls-128" d="M439,473.11l16.87,38.76a10.31,10.31,0,0,0,13.16,5.5l66.56-25.72a10.3,10.3,0,0,0,5.9-13.32l-14.86-38.44a10.29,10.29,0,0,0-13.18-5.95l-68.58,25.4A10.3,10.3,0,0,0,439,473.11Z"/></g><path class="cls-3" d="M587.75,555.48l-71.35,85.9A11.83,11.83,0,0,1,500,643.07L116.6,337.7a11.81,11.81,0,0,1-1.16-17.42l84.54-88a11.81,11.81,0,0,1,16.06-.91l370.17,307.5A11.8,11.8,0,0,1,587.75,555.48Z"/><path class="cls-129" d="M278.52,436.53l46.2,35.23a10.3,10.3,0,0,0,14.08-1.5L389.47,411a10.3,10.3,0,0,0-1.25-14.62L343.6,359.28a10.3,10.3,0,0,0-14.41,1.23l-52.25,61.14A10.3,10.3,0,0,0,278.52,436.53Z"/><path class="cls-130" d="M396.45,416.38l-49.88,58.37a10.29,10.29,0,0,0,1.59,14.88l46.19,35.23a10.32,10.32,0,0,0,14.08-1.5l48.3-56.53a10.31,10.31,0,0,0-1.25-14.62l-44.62-37.06A10.3,10.3,0,0,0,396.45,416.38Z"/><path class="cls-131" d="M253.7,284.6l-33.6-27.91a10.29,10.29,0,0,0-13.59.38l-64.69,60.06a10.3,10.3,0,0,0,.77,15.74l42.87,32.69a10.31,10.31,0,0,0,14.08-1.49L255,299.22A10.3,10.3,0,0,0,253.7,284.6Z"/><path class="cls-132" d="M208.9,383.44l46.19,35.22a10.3,10.3,0,0,0,14.08-1.5l53-62.07A10.3,10.3,0,0,0,321,340.47l-44.62-37.06a10.3,10.3,0,0,0-14.41,1.23l-54.62,63.91A10.31,10.31,0,0,0,208.9,383.44Z"/><path class="cls-133" d="M417.79,542.73l33.61,25.63a10.3,10.3,0,0,0,14.17-1.61l45.59-54.89a10.3,10.3,0,0,0-1.34-14.51L478.12,471a10.3,10.3,0,0,0-14.41,1.23L416.2,527.84A10.31,10.31,0,0,0,417.79,542.73Z"/><path class="cls-6" d="M314.79,594.93,592,592.44a9.75,9.75,0,0,1,9.83,9.8L600.62,815a9.73,9.73,0,0,1-10,9.69c-50.12-1.5-272.65-8.09-282.47-7.68s-4.43-170.48-3-212.64A9.75,9.75,0,0,1,314.79,594.93Z"/><path class="cls-134" d="M590.9,816.53h-.06c-39.86-1.19-240.58-7.15-277.27-7.67h-.42l-.07-.41c-3.47-19.59-3.4-99.61.18-203.84a1.62,1.62,0,0,1,1.61-1.56l277.21-2.49a1.62,1.62,0,0,1,1.17.48,1.59,1.59,0,0,1,.47,1.15L592.5,814.92A1.61,1.61,0,0,1,590.9,816.53ZM314,807.87c37.77.56,237.16,6.47,276.87,7.66h0a.61.61,0,0,0,.58-.62l1.22-212.72a.59.59,0,0,0-.18-.44.64.64,0,0,0-.45-.19l-277.21,2.49a.61.61,0,0,0-.62.59C310.7,708.11,310.6,787.66,314,807.87Z"/><path class="cls-135" d="M287.06,1342.24c14.4.67,28.35.25,37.66-.23-8.48-6-28-19.16-44.35-24.39l-11.22-.67s-3.8,5.78-5.16,19C265.85,1338.28,271.28,1341.52,287.06,1342.24Z"/><path class="cls-136" d="M324.83,1342.09l-.11-.08c-9.31.48-23.26.9-37.66.23-15.78-.72-21.21-4-23.07-6.28-.06.61-.13,1.22-.18,1.86a5.25,5.25,0,0,0,4.83,5.67c11.8.89,41.05,2.92,55.16,2.18A2,2,0,0,0,324.83,1342.09Z"/><path class="cls-137" d="M184,1338.39c-1-6.76-2.74-16.54-4-19-2.05-3.92-9.07,0-9.07,0s-4.93,2.3-7.2,6.13c-1.44,2.44-5.44,9.39-8.15,14.1a3.24,3.24,0,0,0-.43,1.68l28.11,1A5.57,5.57,0,0,0,184,1338.39Z"/><path class="cls-138" d="M155.11,1341.26a3.2,3.2,0,0,0,3.12,3.11l20,.55a5.64,5.64,0,0,0,5-2.68Z"/><path class="cls-139" d="M186.16,1296.87c-.24.81-3.87,18.42-5.46,26.15a4.42,4.42,0,0,1-4.55,3.52c-1.19-.06-2.57-.16-4-.35a5.34,5.34,0,0,1-4.64-5.08c-.25-6.77-.38-19.77,2.11-24.8C173,1289.36,186.16,1296.87,186.16,1296.87Z"/><path class="cls-140" d="M266.94,1301.91c1.56-.05-.62,8,1.74,16a4.08,4.08,0,0,0,3.74,3.22c1.21,0,2.65,0,4.11-.12a4.52,4.52,0,0,0,4.16-4.07l1.92-20.63Z"/><path class="cls-141" d="M310.52,1082.59c-.7,3.38-25.24,146.54-26.73,220.61a2.52,2.52,0,0,1-2.17,2.46,49.74,49.74,0,0,1-15.07-.1,1.78,1.78,0,0,1-1.46-1.63c-.86-13.81-7.76-130.52.69-185.46,0,0-69.78,146.87-80.36,187.37a2.14,2.14,0,0,1-2.18,1.59,53.08,53.08,0,0,1-14.14-2.51,3.7,3.7,0,0,1-2.33-4.34c5.91-24.24,47.33-191.22,75.45-228Z"/><path class="cls-142" d="M265.78,1119.38a.89.89,0,0,1-.64-.26.91.91,0,0,1,0-1.29l9.34-9.56a.92.92,0,0,1,1.3,0,.91.91,0,0,1,0,1.29l-9.34,9.56A.93.93,0,0,1,265.78,1119.38Z"/><path class="cls-143" d="M396.92,903.28a88.68,88.68,0,0,1-46.41.11c-20.42-5.36-60.68-14.22-88.09-9.28l-2.28,71.72,93.71,10.71.84-19s57-8.23,87.79-45.68a153.37,153.37,0,0,1-17.22-23.33A73.65,73.65,0,0,1,396.92,903.28Z"/><path class="cls-144" d="M459,832.59l-7.23-3.17s.36,36.09-26.54,59.07a153.37,153.37,0,0,0,17.22,23.33C457.67,893.35,466.51,867.78,459,832.59Z"/><path class="cls-145" d="M307.29,854.25s-5.44,32.46-6.17,42.67c0,0,26.28,7.25,33.13,3.36L333.39,861Z"/><path class="cls-6" d="M170.6,951.54,360.45,950a9.49,9.49,0,0,1,9.56,9.57l-1,127.89a9.5,9.5,0,0,1-9.79,9.43L171.91,1090a9.51,9.51,0,0,1-9.21-9.38l-1.54-119.45A9.52,9.52,0,0,1,170.6,951.54Z"/><path class="cls-146" d="M359.54,1088.76l-187.39-6.88a1.38,1.38,0,0,1-1.33-1.36l-1.53-119.46a1.34,1.34,0,0,1,.39-1,1.38,1.38,0,0,1,1-.42l189.84-1.55a1.37,1.37,0,0,1,1,.41,1.35,1.35,0,0,1,.4,1l-1,127.89A1.39,1.39,0,0,1,359.54,1088.76Zm1-129.65-189.85,1.55a.4.4,0,0,0-.27.12.34.34,0,0,0-.1.27l1.53,119.45a.38.38,0,0,0,.37.38h0l187.37,6.88a.38.38,0,0,0,.36-.38l1-127.88a.36.36,0,0,0-.11-.28A.35.35,0,0,0,360.51,959.11Z"/><path class="cls-147" d="M308.48,1076.87a2.82,2.82,0,0,1-2.15-1l-5.63-6.68a44.7,44.7,0,0,1-12.33-.32l-6,6.41a2.82,2.82,0,0,1-3.2.65l-10.78-4.79a2.79,2.79,0,0,1-1.66-2.8l.75-8.72a44.8,44.8,0,0,1-8.51-8.94l-8.74.31a2.8,2.8,0,0,1-2.72-1.79l-4.24-11a2.81,2.81,0,0,1,.81-3.15l6.69-5.64a44.62,44.62,0,0,1,.32-12.32l-6.41-6a2.8,2.8,0,0,1-.65-3.19l4.79-10.79a2.81,2.81,0,0,1,2.8-1.66l8.72.75a44.47,44.47,0,0,1,8.94-8.5L269,979a2.79,2.79,0,0,1,1.79-2.72l11-4.25a2.81,2.81,0,0,1,3.15.81l5.64,6.7a44.7,44.7,0,0,1,12.33.31l6-6.41a2.82,2.82,0,0,1,3.19-.65l10.79,4.79a2.81,2.81,0,0,1,1.66,2.81l-.75,8.72A44.75,44.75,0,0,1,332.3,998l8.74-.31a2.81,2.81,0,0,1,2.72,1.8l4.24,11a2.83,2.83,0,0,1-.81,3.16l-6.69,5.63a44.7,44.7,0,0,1-.32,12.33l6.41,6a2.81,2.81,0,0,1,.65,3.19l-4.79,10.79a2.79,2.79,0,0,1-2.81,1.66l-8.71-.75A45.07,45.07,0,0,1,322,1061l.31,8.74a2.79,2.79,0,0,1-1.79,2.72l-11,4.24A2.74,2.74,0,0,1,308.48,1076.87Zm-6.13-11.95,6.5,7.72,9.43-3.63-.36-10.08.91-.62a40.76,40.76,0,0,0,9.59-9.13l.66-.88,10.06.86,4.1-9.23-7.39-6.88.21-1.08a40.87,40.87,0,0,0,.33-13.24l-.15-1.09,7.72-6.5-3.63-9.43-10.08.36-.62-.91a40.76,40.76,0,0,0-9.13-9.59l-.88-.66.86-10.06-9.23-4.1-6.88,7.39-1.08-.21a40.88,40.88,0,0,0-13.24-.33l-1.09.15-6.5-7.72L273,979.66l.36,10.08-.91.63a40.92,40.92,0,0,0-9.59,9.12l-.66.88-10.06-.86-4.1,9.23,7.39,6.88-.21,1.09a40.81,40.81,0,0,0-.33,13.23l.15,1.09-7.72,6.5L251,1047l10.08-.36.62.91a40.76,40.76,0,0,0,9.13,9.59l.88.67-.86,10,9.23,4.1,6.88-7.39,1.08.21a40.88,40.88,0,0,0,13.24.34Zm16,4.94Zm25.55-29.35Zm-96.41-32.35Zm92.57-7.24h0Zm-67-22.11Zm22.45,75.92a30.45,30.45,0,1,1,30.09-35.17,2,2,0,1,1-4,.62,26.68,26.68,0,0,0-1.46-5.44,26.48,26.48,0,1,0-3.86,25.83,2,2,0,1,1,3.15,2.47,30.53,30.53,0,0,1-24,11.69Z"/><path class="cls-148" d="M295.67,1036.81a12.46,12.46,0,0,1-12.31-14.59,12.48,12.48,0,0,1,22.49-5.08h0a12.47,12.47,0,0,1-10.18,19.67Zm0-21a8.58,8.58,0,1,0,1.45.13A8.88,8.88,0,0,0,295.64,1015.85Z"/><path class="cls-149" d="M208.44,1023.68l-.23,0-5.63-.69a1.89,1.89,0,0,1-1.62-1.49l-.82-3.83a22.67,22.67,0,0,1-4.79-2.72l-3.7,1.28a1.91,1.91,0,0,1-2.11-.63l-3.49-4.48a1.88,1.88,0,0,1-.09-2.18l2.14-3.29a22.14,22.14,0,0,1-1.47-5.31l-3.52-1.72a1.92,1.92,0,0,1-1.05-1.93l.7-5.64a1.88,1.88,0,0,1,1.48-1.61l3.84-.82a22.2,22.2,0,0,1,2.71-4.79l-1.27-3.7a1.89,1.89,0,0,1,.63-2.11l4.47-3.49a1.9,1.9,0,0,1,2.19-.09l3.29,2.13a22.12,22.12,0,0,1,5.31-1.46l1.72-3.53a1.91,1.91,0,0,1,1.93-1l5.63.7a1.89,1.89,0,0,1,1.62,1.48l.81,3.84a21.74,21.74,0,0,1,4.79,2.71l3.71-1.27a1.9,1.9,0,0,1,2.1.62l3.49,4.48a1.88,1.88,0,0,1,.1,2.19l-2.14,3.29a22.2,22.2,0,0,1,1.47,5.3l3.52,1.73a1.9,1.9,0,0,1,1.05,1.93l-.7,5.63a1.9,1.9,0,0,1-1.49,1.62l-3.83.81a22,22,0,0,1-2.71,4.79l1.27,3.71a1.88,1.88,0,0,1-.63,2.1l-4.47,3.49a1.9,1.9,0,0,1-2.19.1l-3.29-2.14a22.14,22.14,0,0,1-5.31,1.47l-1.72,3.52A1.91,1.91,0,0,1,208.44,1023.68Zm-4.55-2.82Zm-.16-.77,4.06.5,2.1-4.28.82-.09a19.28,19.28,0,0,0,6-1.65l.75-.35,4,2.6,3.22-2.52-1.54-4.5.52-.65a19.14,19.14,0,0,0,3.05-5.39l.28-.77,4.67-1,.5-4.06-4.28-2.1-.09-.82a18.94,18.94,0,0,0-1.65-6l-.35-.75,2.6-4-2.51-3.23-4.51,1.55-.65-.52a19.14,19.14,0,0,0-5.39-3.05l-.77-.29-1-4.66-4.06-.5-2.1,4.28-.82.09a19,19,0,0,0-6,1.64l-.75.35-4-2.6-3.22,2.52,1.54,4.51-.52.64a19.14,19.14,0,0,0-3,5.39l-.29.78-4.66,1-.5,4.06,4.28,2.09.09.83a19.09,19.09,0,0,0,1.65,6l.34.75-2.59,4,2.51,3.23,4.51-1.55.65.52a19.12,19.12,0,0,0,5.38,3.06l.78.28Zm-11.82-6.36h0Zm40.49-11.9Zm-46.66-10.44v0Zm43.11-6.47h0Zm-.06-1.28ZM192,980.36h0Zm21.37-7Zm-4.83,39a15.2,15.2,0,1,1,12-24.55,15.6,15.6,0,0,1,1.71,2.75,1.5,1.5,0,0,1-2.71,1.3,11.39,11.39,0,0,0-1.37-2.2,12.17,12.17,0,1,0,1.76,11.9,1.5,1.5,0,1,1,2.8,1.08,15.22,15.22,0,0,1-14.15,9.72Z"/><path class="cls-150" d="M285.42,932.82l-23-38.71s-48.09,41.2-62.63,98.49l25.5,16C235.76,989.93,254,965,285.42,932.82Z"/><path class="cls-151" d="M235.64,1092.34c-2.91-.06-5.2-.45-6.42-3.1-2.36-5.1-6.34-13.43-9-17.66a1.37,1.37,0,0,1,.92-2.08,16,16,0,0,1,6.21.32c4.27,1,8-.24,9.31-2.31a1.38,1.38,0,0,0-.64-2l-22.72-9.74a1.32,1.32,0,0,1-.78-.88c-1-3.68-3.09-17.44,12.14-45.13a1.38,1.38,0,0,0-.46-1.84l-22.78-14.31a1.38,1.38,0,0,0-2.08.84c-5,20.93-5.5,43.94,2.48,67.85,0,0,0,.1,0,.16.29,1.65,5.1,28.1,14.53,33.58,9.74,5.66,24.81-3.51,24.81-3.51Z"/><path class="cls-152" d="M336.81,824.33s8.74,20.07,9.32,30.6,2.86,17.36-9.32,19.48-22.43-3.95-28-14.44c0,0-8.71-16.16-6.76-22.78S336.81,824.33,336.81,824.33Z"/><path class="cls-153" d="M313,852.43h1.53s-6.34-13-.76-15.29,27.64-6.79,32.4-14.62c4.59-7.55.5-17.3-5.63-20a.82.82,0,0,0-1,.38l-.51,1a.82.82,0,0,1-1.52-.15h0a.82.82,0,0,0-1.48-.23c-1.46,2.34-5.41,6.15-16,8.1-15,2.78-25,8.86-25.2,19.24a.83.83,0,0,1-1.28.68c-1.1-.68-2.88-1-5.25,1-4.13,3.47-2.44,12.46,6.6,19.87a.82.82,0,0,1,0,1.32c-1.64,1.07-4.09,3.61,2.24,7,6.48,3.47,10.32,3.09,11.76,2.72a.84.84,0,0,0,.63-.86l-.57-9.2a.83.83,0,0,1,.82-.88Z"/><path class="cls-154" d="M313.36,854.36s-3.33-12.82-9.07-9.22,3,14.36,7.6,14.83Z"/><path class="cls-155" d="M431.86,802.5V817s11.8,15,27.17,15.6c0,0,13.53-.89,13.07-10.91l-21.64-4.13s-9.09-2.67-11.63-4.06C438.83,813.49,437,803,431.86,802.5Z"/><path class="cls-156" d="M348.25,789.28H530a7.31,7.31,0,0,0,6.3-11L464.33,656a7.31,7.31,0,0,0-13,.68l-34.73,76.11A7.32,7.32,0,0,1,405,735.1L391,722.22A7.32,7.32,0,0,0,380,723.43l-37.8,54.36A7.32,7.32,0,0,0,348.25,789.28Z"/><circle class="cls-157" cx="527.5" cy="652.26" r="26.12" transform="translate(-130.12 1173.06) rotate(-89.41)"/><path class="cls-158" d="M1380.36,286.2a54.57,54.57,0,0,1,33.34,11.32l19.53-27.63a87.07,87.07,0,0,0-51-16.43c-2.52,0-5,.14-7.56.37l5,32.39Z"/><path class="cls-159" d="M1380.36,395.77c-30.26,0-61-22.54-61-52.79,0-30,30.27-56.36,60.3-56.76l-5-32.39c-45.77,4.09-89.89,44.51-89.89,90.33,0,48.34,49.11,84.35,97.45,84.35a87.06,87.06,0,0,0,35.57-7.56l-19.68-28.14A54.54,54.54,0,0,1,1380.36,395.77Z"/><path class="cls-160" d="M1469.74,341a87.38,87.38,0,0,0-36.51-71.1l-19.53,27.63a54.77,54.77,0,0,1-15.59,95.29L1417.79,421A87.51,87.51,0,0,0,1469.74,341Z"/><path class="cls-6" d="M1630.14,286.2a54.79,54.79,0,0,1,49.06,30.39l22.57-28.43a87.36,87.36,0,0,0-69.77-34.7c-22.36,0-44.87,9.07-62.62,23.59l20,25.25C1600.72,292.44,1615.48,286.2,1630.14,286.2Z"/><path class="cls-5" d="M1569.15,343c0-15.6,8.18-30.19,20.23-40.68l-20-25.25c-20.63,16.88-34.83,41.13-34.83,67.11,0,47.73,47.87,83.42,95.61,84.31l-1.53-32.73C1598.87,395,1569.15,372.73,1569.15,343Z"/><path class="cls-2" d="M1630.14,395.77l-1.51,0,1.53,32.73c.61,0,1.23,0,1.84,0a87.5,87.5,0,0,0,77.88-47.6c-8.38-3.78-20.8-9.18-31.56-13.83A54.76,54.76,0,0,1,1630.14,395.77Z"/><path class="cls-5" d="M1701.77,288.16l-22.57,28.43a54.8,54.8,0,0,1-.88,50.49c10.76,4.65,23.18,10.05,31.56,13.83a87.49,87.49,0,0,0-8.11-92.75Z"/><path class="cls-6" d="M1879.92,286.2a54.53,54.53,0,0,1,31.42,9.92L1929,267.3a87.14,87.14,0,0,0-47.21-13.84c-23.12,0-46.4,9.71-64.42,25.11l21,24.47C1849.75,292.75,1864.89,286.2,1879.92,286.2Z"/><path class="cls-161" d="M1934.61,337.84l34.1-6.89A87.48,87.48,0,0,0,1929,267.3l-17.65,28.82A54.71,54.71,0,0,1,1934.61,337.84Z"/><path class="cls-5" d="M1818.93,343c0-15.23,7.79-29.51,19.38-39.94l-21-24.47c-19.65,16.8-33,40.38-33,65.59,0,31.32,20.62,57.45,48.28,72l17.11-27.8C1832.13,379.31,1818.93,362.8,1818.93,343Z"/><path class="cls-162" d="M1934.61,337.84c.06,1,.1,2.09.1,3.15a54.79,54.79,0,0,1-54.79,54.78,66.81,66.81,0,0,1-30.19-7.43l-17.11,27.8a106.79,106.79,0,0,0,49.16,12.37A87.42,87.42,0,0,0,1968.71,331Z"/><path class="cls-2" d="M1455.48,45.76l-327-1.82a17.16,17.16,0,0,0-14.81,26l1.64,2.73A17.16,17.16,0,0,0,1130,81h325.4a17.16,17.16,0,0,0,17.17-17.16v-.92A17.16,17.16,0,0,0,1455.48,45.76Z"/><path class="cls-2" d="M1501.16,63.31v.53A17.16,17.16,0,0,0,1518.33,81h72.6a17.16,17.16,0,0,0,16.58-12.73h0a17.17,17.17,0,0,0-16.46-21.6l-72.6-.53A17.17,17.17,0,0,0,1501.16,63.31Z"/><path class="cls-2" d="M1376.81,107.38l-248.38-1.82a17.16,17.16,0,0,0-14.81,26l1.64,2.74a17.18,17.18,0,0,0,14.72,8.33h246.73a17.17,17.17,0,0,0,17.17-17.17v-.91A17.17,17.17,0,0,0,1376.81,107.38Z"/><path class="cls-2" d="M1422.49,124.93v.53a17.17,17.17,0,0,0,17.17,17.17h72.6a17.17,17.17,0,0,0,16.58-12.74h0a17.17,17.17,0,0,0-16.46-21.6l-72.6-.53A17.17,17.17,0,0,0,1422.49,124.93Z"/><path class="cls-5" d="M973.85,210a5.33,5.33,0,0,0-3.66,1.45L898,279.86a33.54,33.54,0,0,1-23.16,9.22H629a5.32,5.32,0,1,0,0,10.64h245.8a44.11,44.11,0,0,0,30.47-12.14l72.22-68.4a5.32,5.32,0,0,0,.2-7.52A5.26,5.26,0,0,0,973.85,210Z"/><path class="cls-5" d="M837.08,322.07H629a5.32,5.32,0,1,0,0,10.64H837.08a5.32,5.32,0,0,0,0-10.64Z"/><path class="cls-5" d="M803.23,355.06H629a5.32,5.32,0,1,0,0,10.63H803.23a5.32,5.32,0,1,0,0-10.63Z"/></g></g></svg>