<svg xmlns="http://www.w3.org/2000/svg" viewBox="0 0 1174.11 207.66"><defs><style>.cls-1{fill:#1b2431;}.cls-2{fill:none;stroke:#ff073a;stroke-miterlimit:10;stroke-width:28px;}.cls-3{fill:#016795;}</style></defs><g id="Layer_2" data-name="Layer 2"><g id="Layer_5" data-name="Layer 5"><g id="LETRAS_negativas" data-name="LETRAS negativas"><path class="cls-1" d="M845.78,249.78V44.08H978V79.34H884.57v49.07h85.22v35.27H884.57v50.83h95.21v35.27Z" transform="translate(0 -42.68)"/><path class="cls-1" d="M660.21,249.78V215.71h27V78.26h-27V44.19h84.58q41.41,0,63,21t21.59,62.41v38.77q0,41.41-21.59,62.41t-63,21ZM726,214.53h19.39q23.49,0,34.36-12.33t10.87-34.66V126.43q0-22.62-10.87-34.81T745.38,79.43H726Z" transform="translate(0 -42.68)"/><path class="cls-1" d="M462.45,249.78q-37.09,0-59-20.38t-21.92-58.32V123.87q0-38,21.92-58.32t59-20.37q37.1,0,59,20.37t21.92,58.32v47.21q0,37.95-21.92,58.32T462.45,249.78Zm0-33.17q20.79,0,32.32-12.08t11.52-32.32V122.74q0-20.23-11.52-32.32T462.45,78.34q-20.52,0-32.18,12.08t-11.66,32.32v49.47q0,20.23,11.66,32.32T462.45,216.61Z" transform="translate(0 -42.68)"/><path class="cls-1" d="M195.93,249.47v-34h27V78.13h-27v-34h84.51q41.35,0,62.93,21t21.56,62.34v38.73q0,41.37-21.56,62.35t-62.93,21Zm65.73-35.21H281q23.48,0,34.33-12.32t10.86-34.62V126.24q0-22.59-10.86-34.77T281,79.3H261.66Z" transform="translate(0 -42.68)"/></g><g id="NEGATIVO"><line class="cls-2" x1="562.7" y1="202.7" x2="629.03" y2="5.29"/><path class="cls-1" d="M174.51,92.3l-152.71,80c-.07-.15-4.52-8.77-4.59-8.91Q11.89,153,6.55,142.66c0-.07-3.89-7.54-3.92-7.61L38,114.9,79,91.57l42.27-24.06,43.62-24.83Z" transform="translate(0 -42.68)"/><path class="cls-3" d="M172.74,250.35,0,179.48q1.32-22.32,2.63-44.64l173.31,65.07Z" transform="translate(0 -42.68)"/><path class="cls-3" d="M1004.69,201.13l148.09-88.2,5.07,8.64q5.89,10,11.78,20.06c0,.08,4.29,7.32,4.34,7.39l-34.25,22.06-39.63,25.54L1059.21,223,1017,250.15Z" transform="translate(0 -42.68)"/><path class="cls-1" d="M997.74,43.09l176.37,61.3q-.1,22.35-.19,44.71L997.31,93.63Z" transform="translate(0 -42.68)"/></g></g></g></svg>